<?xml version="1.0" encoding="utf-8"?>
<svg viewBox="0 0 96 96" width="96" height="96" xmlns="http://www.w3.org/2000/svg">
  <g id="surface1" transform="matrix(1, 0, 0, 1, -11.595363, 8.301096)">
    <path style=" stroke:none;fill-rule:nonzero;fill:rgb(20%,21.176471%,22.745098%);fill-opacity:1;" d="M 38.023438 0 L 30.179688 0 C 29.558594 0 29.054688 0.503906 29.054688 1.125 L 29.054688 12.554688 C 29.054688 13.175781 29.558594 13.679688 30.179688 13.679688 L 38.023438 13.679688 C 38.644531 13.679688 39.148438 13.175781 39.148438 12.554688 L 39.148438 1.125 C 39.148438 0.503906 38.644531 0 38.023438 0 Z M 36.898438 11.429688 L 31.308594 11.429688 L 31.308594 2.25 L 36.898438 2.25 Z M 36.898438 11.429688 "/>
    <path style=" stroke:none;fill-rule:nonzero;fill:rgb(20%,21.176471%,22.745098%);fill-opacity:1;" d="M 52.15625 0 C 51.53125 0 51.03125 0.503906 51.03125 1.125 L 51.03125 5.714844 L 45.441406 5.714844 L 45.441406 1.125 C 45.441406 0.503906 44.9375 0 44.316406 0 C 43.691406 0 43.191406 0.503906 43.191406 1.125 L 43.191406 12.554688 C 43.191406 13.175781 43.691406 13.679688 44.316406 13.679688 C 44.9375 13.679688 45.441406 13.175781 45.441406 12.554688 L 45.441406 7.964844 L 51.03125 7.964844 L 51.03125 12.554688 C 51.03125 13.175781 51.53125 13.679688 52.15625 13.679688 C 52.777344 13.679688 53.28125 13.175781 53.28125 12.554688 L 53.28125 1.125 C 53.28125 0.503906 52.777344 0 52.15625 0 Z M 52.15625 0 "/>
    <path style=" stroke:none;fill-rule:nonzero;fill:rgb(20%,21.176471%,22.745098%);fill-opacity:1;" d="M 65.816406 0 L 57.976562 0 C 57.355469 0 56.851562 0.503906 56.851562 1.125 L 56.851562 3.519531 C 56.851562 4.140625 57.355469 4.644531 57.976562 4.644531 C 58.597656 4.644531 59.101562 4.140625 59.101562 3.519531 L 59.101562 2.25 L 64.691406 2.25 L 64.691406 5.714844 L 61.898438 5.714844 C 61.273438 5.714844 60.769531 6.21875 60.769531 6.839844 C 60.769531 6.859375 60.777344 6.875 60.777344 6.890625 C 60.777344 6.910156 60.769531 6.925781 60.769531 6.941406 L 60.769531 9.382812 C 60.769531 10.003906 61.273438 10.507812 61.898438 10.507812 C 62.519531 10.507812 63.023438 10.003906 63.023438 9.382812 L 63.023438 7.964844 L 65.816406 7.964844 C 66.441406 7.964844 66.941406 7.460938 66.941406 6.839844 L 66.941406 1.125 C 66.941406 0.503906 66.441406 0 65.816406 0 Z M 65.816406 0 "/>
    <path style=" stroke:none;fill-rule:nonzero;fill:rgb(20%,21.176471%,22.745098%);fill-opacity:1;" d="M 61.097656 11.757812 C 60.894531 11.96875 60.773438 12.261719 60.773438 12.554688 C 60.773438 12.855469 60.894531 13.140625 61.105469 13.351562 C 61.308594 13.558594 61.601562 13.679688 61.898438 13.679688 C 62.191406 13.679688 62.484375 13.558594 62.695312 13.351562 C 62.90625 13.140625 63.027344 12.855469 63.027344 12.554688 C 63.027344 12.261719 62.90625 11.96875 62.6875 11.757812 C 62.273438 11.339844 61.519531 11.347656 61.097656 11.757812 Z M 61.097656 11.757812 "/>
  </g>
</svg>