<?xml version="1.0" encoding="UTF-8"?>
<svg xmlns="http://www.w3.org/2000/svg" xmlns:xlink="http://www.w3.org/1999/xlink" width="48pt" height="48pt" viewBox="0 0 96 96" version="1.1">
<g id="surface1">
<path style=" stroke:none;fill-rule:nonzero;fill:rgb(66.27451%,38.431373%,90.980392%);fill-opacity:1;" d="M 29.449219 27.121094 C 29.449219 37.566406 30.480469 43.976562 20.035156 43.976562 C 9.589844 43.976562 1.125 35.511719 1.125 25.066406 C 1.125 14.621094 9.589844 6.15625 20.035156 6.15625 C 30.480469 6.15625 29.449219 16.675781 29.449219 27.121094 Z M 29.449219 27.121094 "/>
<path style=" stroke:none;fill-rule:nonzero;fill:rgb(54.509804%,30.980392%,87.843137%);fill-opacity:1;" d="M 1.125 25.066406 C 1.125 34.753906 8.40625 42.730469 17.796875 43.839844 C 25.691406 42.875 24.832031 36.695312 24.832031 27.121094 C 24.832031 17.441406 25.710938 7.699219 17.523438 6.328125 C 8.269531 7.554688 1.125 15.472656 1.125 25.066406 Z M 1.125 25.066406 "/>
<path style=" stroke:none;fill-rule:nonzero;fill:rgb(88.627451%,79.607843%,66.666667%);fill-opacity:1;" d="M 15.300781 28.683594 C 15.300781 39.128906 30.480469 43.976562 20.035156 43.976562 C 9.59375 43.976562 1.125 35.511719 1.125 25.066406 C 1.125 14.621094 9.589844 6.15625 20.035156 6.15625 C 30.480469 6.15625 15.300781 18.238281 15.300781 28.683594 Z M 15.300781 28.683594 "/>
<path style=" stroke:none;fill-rule:nonzero;fill:rgb(94.901961%,91.764706%,78.823529%);fill-opacity:1;" d="M 6.898438 28.683594 C 6.898438 19.792969 17.886719 9.722656 14.71875 6.917969 C 6.863281 9.21875 1.125 16.46875 1.125 25.066406 C 1.125 33.832031 7.089844 41.199219 15.175781 43.34375 C 16.433594 41.726562 6.898438 36.964844 6.898438 28.683594 Z M 6.898438 28.683594 "/>
<path style=" stroke:none;fill-rule:nonzero;fill:rgb(20%,21.176471%,22.745098%);fill-opacity:1;" d="M 30.574219 27.121094 C 30.574219 26.257812 30.582031 25.394531 30.589844 24.535156 C 30.648438 17.652344 30.699219 11.148438 27.175781 7.59375 C 25.652344 6.058594 23.539062 5.214844 20.902344 5.0625 C 20.628906 5.042969 20.339844 5.03125 20.035156 5.03125 C 8.988281 5.03125 0 14.019531 0 25.066406 C 0 36.113281 8.988281 45.101562 20.035156 45.101562 C 20.992188 45.101562 21.808594 45.070312 22.488281 44.964844 C 24.941406 44.679688 26.734375 43.917969 28.019531 42.621094 C 30.679688 39.9375 30.640625 35.417969 30.589844 29.695312 C 30.582031 28.867188 30.574219 28.007812 30.574219 27.121094 Z M 2.25 25.066406 C 2.25 15.257812 10.230469 7.28125 20.035156 7.28125 C 20.273438 7.28125 20.5 7.292969 20.722656 7.304688 C 22.097656 7.398438 22.425781 7.761719 22.496094 7.886719 C 23.042969 8.84375 21.125 12.085938 19.585938 14.6875 C 17.175781 18.761719 14.175781 23.835938 14.175781 28.683594 C 14.175781 34.351562 18.140625 38.363281 20.765625 41.019531 C 21.324219 41.585938 21.988281 42.253906 22.34375 42.707031 C 22.277344 42.722656 22.195312 42.734375 22.109375 42.746094 C 21.476562 42.816406 20.785156 42.851562 20.035156 42.851562 C 10.230469 42.851562 2.25 34.875 2.25 25.066406 Z M 28.339844 29.714844 C 28.386719 35.117188 28.421875 39.019531 26.421875 41.039062 C 25.957031 41.503906 25.363281 41.878906 24.636719 42.164062 C 24.269531 41.363281 23.429688 40.511719 22.363281 39.433594 C 20 37.042969 16.425781 33.429688 16.425781 28.683594 C 16.425781 24.449219 19.253906 19.671875 21.523438 15.832031 C 23.242188 12.925781 24.691406 10.476562 24.816406 8.550781 C 25.085938 8.742188 25.34375 8.945312 25.574219 9.179688 C 28.441406 12.070312 28.390625 18.117188 28.339844 24.519531 C 28.332031 25.382812 28.324219 26.253906 28.324219 27.121094 C 28.324219 28.015625 28.332031 28.882812 28.339844 29.714844 Z M 28.339844 29.714844 "/>
<path style=" stroke:none;fill-rule:nonzero;fill:rgb(66.27451%,38.431373%,90.980392%);fill-opacity:1;" d="M 66.550781 27.121094 C 66.550781 37.566406 65.519531 43.976562 75.964844 43.976562 C 86.410156 43.976562 94.875 35.511719 94.875 25.066406 C 94.875 14.625 86.410156 6.15625 75.964844 6.15625 C 65.519531 6.15625 66.550781 16.675781 66.550781 27.121094 Z M 66.550781 27.121094 "/>
<path style=" stroke:none;fill-rule:nonzero;fill:rgb(54.509804%,30.980392%,87.843137%);fill-opacity:1;" d="M 94.875 25.066406 C 94.875 34.753906 87.59375 42.730469 78.203125 43.839844 C 70.308594 42.875 71.167969 36.695312 71.167969 27.121094 C 71.167969 17.441406 70.289062 7.699219 78.476562 6.328125 C 87.730469 7.554688 94.875 15.472656 94.875 25.066406 Z M 94.875 25.066406 "/>
<path style=" stroke:none;fill-rule:nonzero;fill:rgb(88.627451%,79.607843%,66.666667%);fill-opacity:1;" d="M 80.699219 28.683594 C 80.699219 39.128906 65.519531 43.976562 75.964844 43.976562 C 86.40625 43.976562 94.875 35.511719 94.875 25.066406 C 94.875 14.625 86.410156 6.15625 75.964844 6.15625 C 65.519531 6.15625 80.699219 18.238281 80.699219 28.683594 Z M 80.699219 28.683594 "/>
<path style=" stroke:none;fill-rule:nonzero;fill:rgb(94.901961%,91.764706%,78.823529%);fill-opacity:1;" d="M 89.101562 28.683594 C 89.101562 19.792969 78.113281 9.722656 81.28125 6.917969 C 89.136719 9.21875 94.875 16.46875 94.875 25.066406 C 94.875 33.832031 88.910156 41.199219 80.824219 43.347656 C 79.566406 41.726562 89.101562 36.964844 89.101562 28.683594 Z M 89.101562 28.683594 "/>
<path style=" stroke:none;fill-rule:nonzero;fill:rgb(20%,21.176471%,22.745098%);fill-opacity:1;" d="M 75.964844 45.105469 C 73.390625 45.105469 71.804688 44.867188 71.296875 43.65625 C 70.753906 42.351562 71.898438 41.191406 73.636719 39.433594 C 76 37.042969 79.574219 33.429688 79.574219 28.683594 C 79.574219 24.449219 76.746094 19.671875 74.476562 15.832031 C 72.171875 11.941406 70.355469 8.867188 71.550781 6.773438 C 72.21875 5.597656 73.664062 5.03125 75.964844 5.03125 C 76.585938 5.03125 77.089844 5.535156 77.089844 6.15625 C 77.089844 6.777344 76.585938 7.28125 75.964844 7.28125 C 74.003906 7.28125 73.585938 7.746094 73.507812 7.886719 C 72.960938 8.847656 74.875 12.085938 76.414062 14.6875 C 78.824219 18.765625 81.824219 23.835938 81.824219 28.683594 C 81.824219 34.355469 77.859375 38.363281 75.238281 41.019531 C 74.675781 41.585938 74.015625 42.253906 73.65625 42.710938 C 74.039062 42.78125 74.730469 42.851562 75.964844 42.851562 C 76.585938 42.851562 77.089844 43.359375 77.089844 43.980469 C 77.089844 44.601562 76.585938 45.105469 75.964844 45.105469 Z M 75.964844 45.105469 "/>
<path style=" stroke:none;fill-rule:nonzero;fill:rgb(20%,21.176471%,22.745098%);fill-opacity:1;" d="M 75.964844 45.105469 C 72.195312 45.105469 69.660156 44.316406 67.980469 42.621094 C 65.320312 39.9375 65.359375 35.417969 65.410156 29.695312 C 65.417969 28.867188 65.425781 28.007812 65.425781 27.121094 C 65.425781 26.257812 65.417969 25.394531 65.410156 24.535156 C 65.351562 17.652344 65.300781 11.148438 68.824219 7.59375 C 70.511719 5.890625 72.914062 5.03125 75.964844 5.03125 C 87.011719 5.03125 96 14.019531 96 25.066406 C 96 36.113281 87.011719 45.105469 75.964844 45.105469 Z M 75.964844 7.28125 C 73.503906 7.28125 71.691406 7.902344 70.425781 9.179688 C 67.558594 12.066406 67.609375 18.113281 67.660156 24.515625 C 67.667969 25.378906 67.675781 26.25 67.675781 27.121094 C 67.675781 28.015625 67.667969 28.882812 67.660156 29.714844 C 67.613281 35.117188 67.578125 39.019531 69.578125 41.035156 C 70.789062 42.257812 72.878906 42.851562 75.964844 42.851562 C 85.769531 42.851562 93.75 34.875 93.75 25.066406 C 93.75 15.257812 85.769531 7.28125 75.964844 7.28125 Z M 75.964844 7.28125 "/>
<path style=" stroke:none;fill-rule:nonzero;fill:rgb(73.72549%,49.019608%,100%);fill-opacity:1;" d="M 84.929688 59.179688 C 84.929688 74.699219 68.394531 87.277344 48 87.277344 C 27.605469 87.277344 11.070312 74.695312 11.070312 59.179688 C 11.070312 43.664062 27.605469 25.066406 48 25.066406 C 68.394531 25.066406 84.929688 43.664062 84.929688 59.179688 Z M 84.929688 59.179688 "/>
<path style=" stroke:none;fill-rule:nonzero;fill:rgb(66.27451%,38.431373%,90.980392%);fill-opacity:1;" d="M 84.929688 59.179688 C 84.929688 74.699219 68.394531 87.277344 48 87.277344 C 27.605469 87.277344 11.070312 74.695312 11.070312 59.179688 C 11.070312 43.664062 27.605469 32.96875 48 32.96875 C 68.394531 32.972656 84.929688 43.664062 84.929688 59.179688 Z M 84.929688 59.179688 "/>
<path style=" stroke:none;fill-rule:nonzero;fill:rgb(94.901961%,91.764706%,78.823529%);fill-opacity:1;" d="M 84.929688 59.179688 C 84.929688 74.699219 68.394531 87.277344 48 87.277344 C 27.605469 87.277344 11.070312 74.695312 11.070312 59.179688 C 11.070312 43.660156 15.769531 72.945312 48 72.945312 C 80.230469 72.945312 84.929688 43.660156 84.929688 59.179688 Z M 84.929688 59.179688 "/>
<path style=" stroke:none;fill-rule:nonzero;fill:rgb(100%,98.431373%,92.156863%);fill-opacity:1;" d="M 48 78.949219 C 18.996094 78.949219 12.289062 55.242188 11.238281 61.800781 C 12.976562 76.089844 28.765625 87.277344 48 87.277344 C 67.230469 87.277344 83.023438 76.089844 84.761719 61.800781 C 83.710938 55.242188 77.003906 78.949219 48 78.949219 Z M 48 78.949219 "/>
<path style=" stroke:none;fill-rule:nonzero;fill:rgb(20%,21.176471%,22.745098%);fill-opacity:1;" d="M 48 88.40625 C 27.015625 88.40625 9.945312 75.296875 9.945312 59.183594 C 9.945312 55.632812 10.140625 54.074219 11.363281 53.617188 C 12.628906 53.144531 13.585938 54.238281 15.496094 56.421875 C 19.867188 61.417969 28.964844 71.820312 48 71.820312 C 67.035156 71.820312 76.132812 61.417969 80.503906 56.421875 C 82.414062 54.238281 83.375 53.144531 84.636719 53.617188 C 85.855469 54.074219 86.054688 55.632812 86.054688 59.183594 C 86.054688 75.296875 68.984375 88.40625 48 88.40625 Z M 12.304688 56.25 C 12.246094 56.792969 12.195312 57.695312 12.195312 59.179688 C 12.195312 74.054688 28.257812 86.152344 48 86.152344 C 67.742188 86.152344 83.804688 74.054688 83.804688 59.179688 C 83.804688 57.695312 83.753906 56.792969 83.695312 56.25 C 83.265625 56.683594 82.710938 57.316406 82.199219 57.902344 C 77.609375 63.148438 68.054688 74.070312 48 74.070312 C 27.945312 74.070312 18.390625 63.148438 13.800781 57.902344 C 13.289062 57.316406 12.734375 56.683594 12.304688 56.25 Z M 12.304688 56.25 "/>
<path style=" stroke:none;fill-rule:nonzero;fill:rgb(20%,21.176471%,22.745098%);fill-opacity:1;" d="M 48 88.40625 C 27.015625 88.40625 9.945312 75.296875 9.945312 59.183594 C 9.945312 43.21875 26.921875 23.941406 48 23.941406 C 69.078125 23.941406 86.054688 43.21875 86.054688 59.183594 C 86.054688 75.296875 68.984375 88.40625 48 88.40625 Z M 48 26.191406 C 28.167969 26.191406 12.195312 44.238281 12.195312 59.179688 C 12.195312 74.054688 28.257812 86.152344 48 86.152344 C 67.742188 86.152344 83.804688 74.054688 83.804688 59.179688 C 83.804688 44.238281 67.832031 26.191406 48 26.191406 Z M 48 26.191406 "/>
<path style=" stroke:none;fill-rule:nonzero;fill:rgb(64.705882%,7.843137%,36.470588%);fill-opacity:1;" d="M 35.871094 63.136719 C 35.871094 66.476562 33.164062 69.179688 29.828125 69.179688 C 26.492188 69.179688 23.785156 66.476562 23.785156 63.136719 C 23.785156 59.800781 26.492188 57.097656 29.828125 57.097656 C 33.164062 57.097656 35.871094 59.800781 35.871094 63.136719 Z M 35.871094 63.136719 "/>
<path style=" stroke:none;fill-rule:nonzero;fill:rgb(20%,21.176471%,22.745098%);fill-opacity:1;" d="M 29.828125 55.96875 C 25.875 55.96875 22.660156 59.183594 22.660156 63.136719 C 22.660156 67.089844 25.875 70.304688 29.828125 70.304688 C 33.78125 70.304688 36.996094 67.089844 36.996094 63.136719 C 36.996094 59.183594 33.78125 55.96875 29.828125 55.96875 Z M 29.828125 68.054688 C 27.785156 68.054688 26.03125 66.800781 25.292969 65.027344 C 26.398438 64.996094 28.019531 64.386719 29.828125 64.386719 C 31.640625 64.386719 33.257812 64.996094 34.367188 65.027344 C 33.625 66.800781 31.871094 68.054688 29.828125 68.054688 Z M 29.828125 68.054688 "/>
<path style=" stroke:none;fill-rule:nonzero;fill:rgb(100%,100%,100%);fill-opacity:1;" d="M 29.285156 61.175781 C 29.285156 62.535156 28.183594 63.636719 26.824219 63.636719 C 25.464844 63.636719 24.363281 62.535156 24.363281 61.175781 C 24.363281 59.8125 25.464844 58.710938 26.824219 58.710938 C 28.183594 58.710938 29.285156 59.8125 29.285156 61.175781 Z M 29.285156 61.175781 "/>
<path style=" stroke:none;fill-rule:nonzero;fill:rgb(20%,21.176471%,22.745098%);fill-opacity:1;" d="M 26.824219 64.761719 C 24.84375 64.761719 23.234375 63.152344 23.234375 61.175781 C 23.234375 59.195312 24.847656 57.585938 26.824219 57.585938 C 28.800781 57.585938 30.410156 59.195312 30.410156 61.175781 C 30.410156 63.152344 28.800781 64.761719 26.824219 64.761719 Z M 26.824219 59.839844 C 26.085938 59.839844 25.488281 60.4375 25.488281 61.171875 C 25.488281 61.910156 26.085938 62.511719 26.824219 62.511719 C 27.558594 62.511719 28.160156 61.910156 28.160156 61.171875 C 28.160156 60.4375 27.5625 59.839844 26.824219 59.839844 Z M 26.824219 59.839844 "/>
<path style=" stroke:none;fill-rule:nonzero;fill:rgb(64.705882%,7.843137%,36.470588%);fill-opacity:1;" d="M 72.214844 63.136719 C 72.214844 66.476562 69.507812 69.179688 66.171875 69.179688 C 62.835938 69.179688 60.128906 66.476562 60.128906 63.136719 C 60.128906 59.800781 62.832031 57.097656 66.171875 57.097656 C 69.507812 57.097656 72.214844 59.800781 72.214844 63.136719 Z M 72.214844 63.136719 "/>
<path style=" stroke:none;fill-rule:nonzero;fill:rgb(100%,100%,100%);fill-opacity:1;" d="M 65.628906 61.175781 C 65.628906 62.535156 64.523438 63.636719 63.164062 63.636719 C 61.804688 63.636719 60.703125 62.535156 60.703125 61.175781 C 60.703125 59.816406 61.804688 58.710938 63.164062 58.710938 C 64.523438 58.710938 65.628906 59.816406 65.628906 61.175781 Z M 65.628906 61.175781 "/>
<path style=" stroke:none;fill-rule:nonzero;fill:rgb(20%,21.176471%,22.745098%);fill-opacity:1;" d="M 66.171875 55.96875 C 63.738281 55.96875 61.589844 57.191406 60.292969 59.046875 C 60.210938 59.160156 60.136719 59.277344 60.070312 59.394531 C 59.398438 60.488281 59.003906 61.765625 59.003906 63.136719 C 59.003906 67.089844 62.21875 70.304688 66.171875 70.304688 C 70.125 70.304688 73.339844 67.089844 73.339844 63.136719 C 73.339844 59.183594 70.125 55.96875 66.171875 55.96875 Z M 66.171875 68.054688 C 64.128906 68.054688 62.375 66.800781 61.632812 65.027344 C 62.148438 65.011719 62.777344 64.875 63.484375 64.730469 C 63.738281 64.707031 63.980469 64.660156 64.214844 64.585938 C 64.828125 64.476562 65.484375 64.386719 66.171875 64.386719 C 67.980469 64.386719 69.601562 64.996094 70.707031 65.027344 C 69.96875 66.800781 68.214844 68.054688 66.171875 68.054688 Z M 66.171875 68.054688 "/>
<path style=" stroke:none;fill-rule:nonzero;fill:rgb(100%,100%,100%);fill-opacity:1;" d="M 63.167969 59.839844 C 62.429688 59.839844 61.828125 60.4375 61.828125 61.171875 C 61.828125 61.910156 62.429688 62.511719 63.167969 62.511719 C 63.902344 62.511719 64.5 61.910156 64.5 61.171875 C 64.5 60.4375 63.902344 59.839844 63.167969 59.839844 Z M 63.167969 59.839844 "/>
<path style=" stroke:none;fill-rule:nonzero;fill:rgb(82.745098%,87.843137%,88.627451%);fill-opacity:1;" d="M 52.710938 89.84375 L 43.289062 89.84375 L 40.636719 78.304688 L 55.363281 78.304688 Z M 52.710938 89.84375 "/>
<path style=" stroke:none;fill-rule:nonzero;fill:rgb(100%,100%,100%);fill-opacity:1;" d="M 52.710938 86.375 L 54.566406 78.304688 L 41.433594 78.304688 L 43.289062 86.375 Z M 52.710938 86.375 "/>
<path style=" stroke:none;fill-rule:nonzero;fill:rgb(20%,21.176471%,22.745098%);fill-opacity:1;" d="M 57.972656 71.761719 C 57.851562 71.253906 57.398438 70.894531 56.875 70.894531 L 39.125 70.894531 C 38.601562 70.894531 38.148438 71.253906 38.027344 71.761719 C 37.910156 72.269531 38.152344 72.792969 38.621094 73.027344 L 46.914062 77.179688 L 40.636719 77.179688 C 40.292969 77.179688 39.96875 77.335938 39.757812 77.601562 C 39.542969 77.871094 39.464844 78.222656 39.539062 78.554688 L 42.191406 90.097656 C 42.308594 90.609375 42.765625 90.96875 43.289062 90.96875 L 52.710938 90.96875 C 53.234375 90.96875 53.6875 90.609375 53.808594 90.097656 L 56.460938 78.554688 C 56.535156 78.222656 56.457031 77.871094 56.242188 77.601562 C 56.027344 77.332031 55.707031 77.179688 55.363281 77.179688 L 49.085938 77.179688 L 57.378906 73.027344 C 57.847656 72.792969 58.089844 72.269531 57.972656 71.761719 Z M 46.875 88.71875 L 44.1875 88.71875 L 42.050781 79.429688 L 46.875 79.429688 Z M 49.125 79.429688 L 53.949219 79.429688 L 51.8125 88.71875 L 49.125 88.71875 Z M 49.125 79.429688 "/>
<path style=" stroke:none;fill-rule:nonzero;fill:rgb(100%,98.431373%,92.156863%);fill-opacity:1;" d="M 79.148438 73.824219 L 94.101562 62.285156 L 76.859375 67.21875 "/>
<path style=" stroke:none;fill-rule:nonzero;fill:rgb(20%,21.176471%,22.745098%);fill-opacity:1;" d="M 79.148438 74.953125 C 78.808594 74.953125 78.476562 74.800781 78.253906 74.511719 C 77.875 74.023438 77.964844 73.3125 78.460938 72.933594 L 88.761719 64.980469 L 77.171875 68.300781 C 76.574219 68.46875 75.949219 68.125 75.777344 67.527344 C 75.609375 66.929688 75.953125 66.308594 76.550781 66.136719 L 93.792969 61.199219 C 94.3125 61.054688 94.863281 61.292969 95.105469 61.777344 C 95.351562 62.257812 95.21875 62.84375 94.789062 63.175781 L 79.835938 74.71875 C 79.628906 74.875 79.386719 74.953125 79.148438 74.953125 Z M 79.148438 74.953125 "/>
<path style=" stroke:none;fill-rule:nonzero;fill:rgb(100%,98.431373%,92.156863%);fill-opacity:1;" d="M 16.851562 73.824219 L 1.898438 62.285156 L 19.140625 67.21875 "/>
<path style=" stroke:none;fill-rule:nonzero;fill:rgb(20%,21.176471%,22.745098%);fill-opacity:1;" d="M 16.851562 74.953125 C 16.613281 74.953125 16.371094 74.875 16.164062 74.714844 L 1.210938 63.175781 C 0.78125 62.84375 0.648438 62.257812 0.894531 61.777344 C 1.136719 61.292969 1.6875 61.054688 2.207031 61.199219 L 19.449219 66.136719 C 20.046875 66.308594 20.394531 66.929688 20.222656 67.527344 C 20.050781 68.125 19.425781 68.46875 18.832031 68.300781 L 7.238281 64.984375 L 17.539062 72.933594 C 18.035156 73.316406 18.125 74.023438 17.746094 74.515625 C 17.523438 74.800781 17.191406 74.953125 16.851562 74.953125 Z M 16.851562 74.953125 "/>
<path style=" stroke:none;fill-rule:nonzero;fill:rgb(73.72549%,49.019608%,100%);fill-opacity:1;" d="M 55.363281 65.964844 C 55.363281 67.511719 52.066406 66.644531 48 66.644531 C 43.933594 66.644531 40.636719 67.511719 40.636719 65.964844 C 40.636719 64.414062 43.933594 63.15625 48 63.15625 C 52.066406 63.15625 55.363281 64.414062 55.363281 65.964844 Z M 55.363281 65.964844 "/>
<path style=" stroke:none;fill-rule:nonzero;fill:rgb(20%,21.176471%,22.745098%);fill-opacity:1;" d="M 48.285156 51.683594 C 46.203125 51.683594 44.171875 51.046875 42.429688 49.828125 C 40.183594 48.257812 38.683594 45.902344 38.207031 43.203125 C 37.398438 38.628906 40.464844 34.246094 45.039062 33.433594 C 48.832031 32.765625 52.457031 35.300781 53.125 39.085938 C 53.234375 39.695312 52.824219 40.28125 52.210938 40.390625 C 51.601562 40.496094 51.015625 40.089844 50.90625 39.476562 C 50.453125 36.914062 47.996094 35.191406 45.433594 35.648438 C 42.078125 36.242188 39.832031 39.457031 40.421875 42.8125 C 40.796875 44.921875 41.964844 46.757812 43.71875 47.984375 C 45.472656 49.210938 47.597656 49.675781 49.703125 49.308594 C 52.410156 48.828125 54.769531 47.324219 56.347656 45.070312 C 57.921875 42.816406 58.527344 40.085938 58.046875 37.378906 C 56.785156 30.242188 49.949219 25.460938 42.816406 26.722656 C 42.207031 26.832031 41.617188 26.421875 41.511719 25.808594 C 41.402344 25.199219 41.8125 24.613281 42.421875 24.503906 C 50.785156 23.03125 58.785156 28.625 60.265625 36.988281 C 60.847656 40.285156 60.113281 43.617188 58.191406 46.359375 C 56.269531 49.109375 53.394531 50.941406 50.09375 51.523438 C 49.492188 51.628906 48.886719 51.683594 48.285156 51.683594 Z M 48.285156 51.683594 "/>
</g>
</svg>
