<?xml version="1.0" encoding="UTF-8"?>
<svg xmlns="http://www.w3.org/2000/svg" xmlns:xlink="http://www.w3.org/1999/xlink" width="40pt" height="40pt" viewBox="0 0 95 95" version="1.1">
<g id="surface1">
<path style=" stroke:none;fill-rule:nonzero;fill:rgb(100%,10.196078%,10.196078%);fill-opacity:1;" d="M 93.871094 47.5 C 93.871094 73.109375 73.109375 93.871094 47.5 93.871094 C 21.890625 93.871094 1.128906 73.109375 1.128906 47.5 C 1.128906 21.890625 21.890625 1.128906 47.5 1.128906 C 73.109375 1.128906 93.871094 21.890625 93.871094 47.5 Z M 93.871094 47.5 "/>
<path style=" stroke:none;fill-rule:nonzero;fill:rgb(83.921569%,3.529412%,3.529412%);fill-opacity:1;" d="M 93.871094 47.5 C 93.871094 27.882812 73.109375 11.980469 47.5 11.980469 C 21.890625 11.980469 1.128906 27.882812 1.128906 47.5 C 1.128906 67.113281 21.890625 83.015625 47.5 83.015625 C 73.109375 83.015625 93.871094 67.113281 93.871094 47.5 Z M 93.871094 47.5 "/>
<path style=" stroke:none;fill-rule:nonzero;fill:rgb(100%,100%,100%);fill-opacity:1;" d="M 1.128906 47.5 C 1.128906 73.113281 21.890625 93.871094 47.5 93.871094 C 73.109375 93.871094 93.871094 73.113281 93.871094 47.5 Z M 1.128906 47.5 "/>
<path style=" stroke:none;fill-rule:nonzero;fill:rgb(84.705882%,89.803922%,91.764706%);fill-opacity:1;" d="M 47.5 83.015625 C 73.109375 83.015625 93.871094 67.113281 93.871094 47.5 L 1.128906 47.5 C 1.128906 67.113281 21.890625 83.015625 47.5 83.015625 Z M 47.5 83.015625 "/>
<path style=" stroke:none;fill-rule:nonzero;fill:rgb(20%,21.176471%,22.745098%);fill-opacity:1;" d="M 47.5 0 C 21.308594 0 0 21.308594 0 47.5 C 0 73.691406 21.308594 95 47.5 95 C 73.691406 95 95 73.691406 95 47.5 C 95 21.308594 73.691406 0 47.5 0 Z M 47.5 2.257812 C 72.070312 2.257812 92.113281 21.945312 92.714844 46.371094 L 2.285156 46.371094 C 2.886719 21.945312 22.929688 2.257812 47.5 2.257812 Z M 47.5 92.742188 C 22.929688 92.742188 2.886719 73.054688 2.285156 48.628906 L 92.714844 48.628906 C 92.113281 73.054688 72.070312 92.742188 47.5 92.742188 Z M 47.5 92.742188 "/>
<path style=" stroke:none;fill-rule:nonzero;fill:rgb(65.490196%,73.333333%,75.686275%);fill-opacity:1;" d="M 60.105469 51.785156 C 60.105469 58.75 54.460938 64.394531 47.5 64.394531 C 40.539062 64.394531 34.894531 58.75 34.894531 51.785156 C 34.894531 44.824219 40.539062 39.179688 47.5 39.179688 C 54.460938 39.179688 60.105469 44.824219 60.105469 51.785156 Z M 60.105469 51.785156 "/>
<path style=" stroke:none;fill-rule:nonzero;fill:rgb(100%,100%,100%);fill-opacity:1;" d="M 60.105469 47.5 C 60.105469 54.460938 54.460938 60.105469 47.5 60.105469 C 40.539062 60.105469 34.894531 54.460938 34.894531 47.5 C 34.894531 40.539062 40.539062 34.894531 47.5 34.894531 C 54.460938 34.894531 60.105469 40.539062 60.105469 47.5 Z M 60.105469 47.5 "/>
<path style=" stroke:none;fill-rule:nonzero;fill:rgb(84.705882%,89.803922%,91.764706%);fill-opacity:1;" d="M 38.585938 56.414062 C 33.664062 51.492188 33.664062 43.511719 38.585938 38.585938 C 43.507812 33.664062 51.492188 33.664062 56.414062 38.585938 "/>
<path style=" stroke:none;fill-rule:nonzero;fill:rgb(20%,21.176471%,22.745098%);fill-opacity:1;" d="M 47.5 61.234375 C 43.832031 61.234375 40.382812 59.804688 37.789062 57.210938 C 32.433594 51.859375 32.433594 43.144531 37.789062 37.789062 C 43.144531 32.433594 51.855469 32.433594 57.210938 37.789062 C 59.804688 40.382812 61.234375 43.832031 61.234375 47.5 C 61.234375 51.167969 59.804688 54.617188 57.210938 57.210938 C 54.617188 59.804688 51.167969 61.234375 47.5 61.234375 Z M 47.5 36.027344 C 44.558594 36.027344 41.621094 37.144531 39.382812 39.382812 C 34.910156 43.859375 34.910156 51.140625 39.382812 55.617188 C 41.550781 57.785156 44.433594 58.980469 47.5 58.980469 C 50.566406 58.980469 53.449219 57.785156 55.617188 55.617188 C 57.785156 53.449219 58.976562 50.566406 58.976562 47.5 C 58.976562 44.433594 57.785156 41.550781 55.617188 39.382812 C 53.378906 37.144531 50.441406 36.027344 47.5 36.027344 Z M 47.5 36.027344 "/>
<path style=" stroke:none;fill-rule:nonzero;fill:rgb(100%,100%,100%);fill-opacity:1;" d="M 51.789062 51.789062 C 49.421875 54.152344 45.582031 54.152344 43.214844 51.789062 C 40.847656 49.417969 40.847656 45.582031 43.214844 43.214844 C 45.582031 40.84375 49.421875 40.847656 51.789062 43.214844 C 54.15625 45.582031 54.15625 49.417969 51.789062 51.789062 Z M 51.789062 51.789062 "/>
<path style=" stroke:none;fill-rule:nonzero;fill:rgb(84.705882%,89.803922%,91.764706%);fill-opacity:1;" d="M 43.214844 43.214844 C 45.582031 40.84375 49.421875 40.847656 51.789062 43.214844 C 54.15625 45.582031 54.15625 49.417969 51.789062 51.789062 "/>
<path style=" stroke:none;fill-rule:nonzero;fill:rgb(20%,21.176471%,22.745098%);fill-opacity:1;" d="M 47.5 54.6875 C 45.660156 54.6875 43.816406 53.988281 42.414062 52.585938 C 39.613281 49.78125 39.613281 45.21875 42.414062 42.414062 C 43.773438 41.058594 45.578125 40.308594 47.5 40.308594 C 49.421875 40.308594 51.226562 41.058594 52.585938 42.414062 C 55.390625 45.21875 55.390625 49.78125 52.585938 52.585938 C 51.183594 53.988281 49.34375 54.6875 47.5 54.6875 Z M 47.5 42.566406 C 46.183594 42.566406 44.941406 43.078125 44.011719 44.011719 C 42.085938 45.933594 42.085938 49.066406 44.011719 50.992188 C 45.933594 52.914062 49.066406 52.914062 50.992188 50.992188 C 52.914062 49.066406 52.914062 45.933594 50.992188 44.011719 C 50.058594 43.078125 48.820312 42.566406 47.5 42.566406 Z M 47.5 42.566406 "/>
</g>
</svg>
