<svg width="167" height="40" viewBox="0 0 167 40" fill="none" xmlns="http://www.w3.org/2000/svg">
<rect width="166.667" height="40" fill="white"/>
<path d="M45.4382 13.3335C45.4396 13.089 45.3056 12.7877 45.0207 12.6489L34.0568 7.08267C33.8432 6.97421 33.5911 6.97238 33.3761 7.07774L22.4273 12.4393C22.1995 12.5534 21.9982 12.8014 22 13.1244V26.7737C22 27.0628 22.1635 27.3271 22.4222 27.4562L33.371 32.9203C33.551 33.0046 33.7984 33.0464 34.0518 32.9205L45.0157 27.4564C45.2746 27.3274 45.4383 27.063 45.4383 26.7737V13.3379C45.4382 13.3364 45.4382 13.3349 45.4382 13.3335ZM33.7054 8.61508L43.0192 13.3436L38.4069 15.7885C35.7935 12.9588 31.4759 13.0812 29.0596 15.7142L24.4175 13.1634L33.7054 8.61508ZM38.5154 20.016C38.5585 22.3309 36.7866 24.3985 34.4743 24.7539V19.5998L37.9479 17.7585C38.3142 18.4376 38.5154 19.2089 38.5154 20.016ZM28.9228 19.9671C28.9228 19.1717 29.1223 18.393 29.501 17.6975L32.9487 19.592V24.7522C30.5586 24.3544 28.8853 22.3092 28.9228 19.9671ZM33.718 18.2741L30.4505 16.4786C32.2227 14.7742 35.2172 14.8491 36.9994 16.5347L33.718 18.2741ZM23.5255 14.4138L28.1642 16.9629C25.9647 21.102 28.701 25.7798 32.9487 26.292V31.0047L23.5255 26.302V14.4138ZM34.4743 31.0054V26.2933C39.1283 25.6887 41.2913 20.7551 39.2968 17.0435L43.9126 14.5967V26.3016L34.4743 31.0054Z" fill="#212121"/>
<path d="M57.533 25.153C57.1023 25.153 56.7737 25.034 56.547 24.796C56.3203 24.558 56.207 24.2237 56.207 23.793V14.205C56.207 13.7743 56.3203 13.4457 56.547 13.219C56.7737 12.981 57.1023 12.862 57.533 12.862C57.9523 12.862 58.2753 12.981 58.502 13.219C58.7287 13.4457 58.842 13.7743 58.842 14.205V18.234H58.876L63.398 13.508C63.5907 13.304 63.789 13.151 63.993 13.049C64.2083 12.9357 64.452 12.879 64.724 12.879C65.1207 12.879 65.404 12.981 65.574 13.185C65.7553 13.389 65.8347 13.627 65.812 13.899C65.7893 14.171 65.6647 14.426 65.438 14.664L60.899 19.305L60.916 18.166L65.676 23.249C65.9367 23.5323 66.067 23.8213 66.067 24.116C66.0783 24.4107 65.982 24.66 65.778 24.864C65.5853 25.0567 65.2963 25.153 64.911 25.153C64.5823 25.153 64.316 25.085 64.112 24.949C63.9193 24.813 63.704 24.6147 63.466 24.354L58.876 19.526H58.842V23.793C58.842 24.2237 58.7287 24.558 58.502 24.796C58.2867 25.034 57.9637 25.153 57.533 25.153ZM69.9716 25.136C69.5522 25.136 69.2292 25.017 69.0026 24.779C68.7872 24.5297 68.6796 24.184 68.6796 23.742V17.928C68.6796 17.4747 68.7872 17.129 69.0026 16.891C69.2292 16.6417 69.5522 16.517 69.9716 16.517C70.3796 16.517 70.6912 16.6417 70.9066 16.891C71.1332 17.129 71.2466 17.4747 71.2466 17.928V23.742C71.2466 24.184 71.1389 24.5297 70.9236 24.779C70.7082 25.017 70.3909 25.136 69.9716 25.136ZM69.9716 15.123C69.4956 15.123 69.1272 15.0153 68.8666 14.8C68.6172 14.5733 68.4926 14.256 68.4926 13.848C68.4926 13.4287 68.6172 13.1113 68.8666 12.896C69.1272 12.6693 69.4956 12.556 69.9716 12.556C70.4476 12.556 70.8102 12.6693 71.0596 12.896C71.3089 13.1113 71.4336 13.4287 71.4336 13.848C71.4336 14.256 71.3089 14.5733 71.0596 14.8C70.8102 15.0153 70.4476 15.123 69.9716 15.123ZM76.9004 25.187C76.175 25.187 75.5347 25.0113 74.9794 24.66C74.4354 24.3087 74.0104 23.8043 73.7044 23.147C73.3984 22.4897 73.2454 21.7133 73.2454 20.818C73.2454 19.9227 73.3984 19.152 73.7044 18.506C74.0104 17.86 74.4354 17.3613 74.9794 17.01C75.5347 16.6587 76.175 16.483 76.9004 16.483C77.5577 16.483 78.1357 16.6417 78.6344 16.959C79.1444 17.2763 79.4901 17.69 79.6714 18.2H79.4844V14.171C79.4844 13.7403 79.5921 13.4173 79.8074 13.202C80.0227 12.9753 80.3401 12.862 80.7594 12.862C81.1674 12.862 81.4847 12.9753 81.7114 13.202C81.9381 13.4173 82.0514 13.7403 82.0514 14.171V23.844C82.0514 24.2633 81.9381 24.5863 81.7114 24.813C81.4961 25.0397 81.1844 25.153 80.7764 25.153C80.3684 25.153 80.0511 25.0397 79.8244 24.813C79.6091 24.5863 79.5014 24.2633 79.5014 23.844V22.688L79.6884 23.351C79.5297 23.9063 79.1897 24.354 78.6684 24.694C78.1584 25.0227 77.5691 25.187 76.9004 25.187ZM77.6654 23.266C78.0394 23.266 78.3624 23.1753 78.6344 22.994C78.9064 22.8127 79.1217 22.5463 79.2804 22.195C79.4391 21.8323 79.5184 21.3733 79.5184 20.818C79.5184 19.9907 79.3484 19.3843 79.0084 18.999C78.6684 18.6023 78.2207 18.404 77.6654 18.404C77.3027 18.404 76.9797 18.489 76.6964 18.659C76.4244 18.829 76.2091 19.0953 76.0504 19.458C75.9031 19.8093 75.8294 20.2627 75.8294 20.818C75.8294 21.6453 75.9994 22.263 76.3394 22.671C76.6794 23.0677 77.1214 23.266 77.6654 23.266ZM88.4664 25.187C87.571 25.187 86.789 25.0113 86.1204 24.66C85.463 24.3087 84.953 23.8043 84.5904 23.147C84.2277 22.4897 84.0464 21.7133 84.0464 20.818C84.0464 20.1493 84.1484 19.5487 84.3524 19.016C84.5564 18.4833 84.851 18.03 85.2364 17.656C85.633 17.2707 86.1034 16.9817 86.6474 16.789C87.1914 16.585 87.7977 16.483 88.4664 16.483C89.3617 16.483 90.138 16.6587 90.7954 17.01C91.464 17.3613 91.9797 17.86 92.3424 18.506C92.7164 19.152 92.9034 19.9227 92.9034 20.818C92.9034 21.498 92.7957 22.1043 92.5804 22.637C92.3764 23.1697 92.0817 23.6287 91.6964 24.014C91.311 24.3993 90.8407 24.694 90.2854 24.898C89.7414 25.0907 89.135 25.187 88.4664 25.187ZM88.4664 23.266C88.8404 23.266 89.1634 23.1753 89.4354 22.994C89.7074 22.8127 89.9227 22.5463 90.0814 22.195C90.24 21.8323 90.3194 21.3733 90.3194 20.818C90.3194 19.9907 90.1494 19.3843 89.8094 18.999C89.4694 18.6023 89.0217 18.404 88.4664 18.404C88.1037 18.404 87.7807 18.489 87.4974 18.659C87.2254 18.829 87.01 19.0953 86.8514 19.458C86.704 19.8093 86.6304 20.2627 86.6304 20.818C86.6304 21.6453 86.8004 22.263 87.1404 22.671C87.4804 23.0677 87.9224 23.266 88.4664 23.266ZM100.925 25.187C99.6331 25.187 98.5281 24.932 97.6101 24.422C96.6921 23.912 95.9838 23.198 95.4851 22.28C94.9978 21.3507 94.7541 20.257 94.7541 18.999C94.7541 18.0583 94.8901 17.214 95.1621 16.466C95.4454 15.7067 95.8534 15.0607 96.3861 14.528C96.9188 13.984 97.5648 13.5647 98.3241 13.27C99.0948 12.9753 99.9618 12.828 100.925 12.828C101.492 12.828 102.064 12.9017 102.642 13.049C103.231 13.185 103.741 13.3833 104.172 13.644C104.455 13.8027 104.648 14.001 104.75 14.239C104.852 14.477 104.88 14.715 104.835 14.953C104.801 15.191 104.705 15.395 104.546 15.565C104.399 15.735 104.212 15.8427 103.985 15.888C103.758 15.9333 103.503 15.8823 103.22 15.735C102.88 15.531 102.523 15.3837 102.149 15.293C101.775 15.2023 101.395 15.157 101.01 15.157C100.251 15.157 99.6104 15.31 99.0891 15.616C98.5791 15.9107 98.1938 16.3413 97.9331 16.908C97.6724 17.4747 97.5421 18.1717 97.5421 18.999C97.5421 19.815 97.6724 20.512 97.9331 21.09C98.1938 21.668 98.5791 22.11 99.0891 22.416C99.6104 22.7107 100.251 22.858 101.01 22.858C101.373 22.858 101.741 22.8127 102.115 22.722C102.5 22.6313 102.869 22.4897 103.22 22.297C103.515 22.1497 103.775 22.0987 104.002 22.144C104.24 22.178 104.433 22.28 104.58 22.45C104.739 22.6087 104.835 22.8013 104.869 23.028C104.914 23.2547 104.892 23.4813 104.801 23.708C104.71 23.9347 104.54 24.1273 104.291 24.286C103.872 24.5693 103.356 24.7903 102.744 24.949C102.132 25.1077 101.526 25.187 100.925 25.187ZM110.351 25.187C109.455 25.187 108.673 25.0113 108.005 24.66C107.347 24.3087 106.837 23.8043 106.475 23.147C106.112 22.4897 105.931 21.7133 105.931 20.818C105.931 20.1493 106.033 19.5487 106.237 19.016C106.441 18.4833 106.735 18.03 107.121 17.656C107.517 17.2707 107.988 16.9817 108.532 16.789C109.076 16.585 109.682 16.483 110.351 16.483C111.246 16.483 112.022 16.6587 112.68 17.01C113.348 17.3613 113.864 17.86 114.227 18.506C114.601 19.152 114.788 19.9227 114.788 20.818C114.788 21.498 114.68 22.1043 114.465 22.637C114.261 23.1697 113.966 23.6287 113.581 24.014C113.195 24.3993 112.725 24.694 112.17 24.898C111.626 25.0907 111.019 25.187 110.351 25.187ZM110.351 23.266C110.725 23.266 111.048 23.1753 111.32 22.994C111.592 22.8127 111.807 22.5463 111.966 22.195C112.124 21.8323 112.204 21.3733 112.204 20.818C112.204 19.9907 112.034 19.3843 111.694 18.999C111.354 18.6023 110.906 18.404 110.351 18.404C109.988 18.404 109.665 18.489 109.382 18.659C109.11 18.829 108.894 19.0953 108.736 19.458C108.588 19.8093 108.515 20.2627 108.515 20.818C108.515 21.6453 108.685 22.263 109.025 22.671C109.365 23.0677 109.807 23.266 110.351 23.266ZM120.021 25.187C119.296 25.187 118.656 25.0113 118.1 24.66C117.556 24.3087 117.131 23.8043 116.825 23.147C116.519 22.4897 116.366 21.7133 116.366 20.818C116.366 19.9227 116.519 19.152 116.825 18.506C117.131 17.86 117.556 17.3613 118.1 17.01C118.656 16.6587 119.296 16.483 120.021 16.483C120.679 16.483 121.257 16.6417 121.755 16.959C122.265 17.2763 122.611 17.69 122.792 18.2H122.605V14.171C122.605 13.7403 122.713 13.4173 122.928 13.202C123.144 12.9753 123.461 12.862 123.88 12.862C124.288 12.862 124.606 12.9753 124.832 13.202C125.059 13.4173 125.172 13.7403 125.172 14.171V23.844C125.172 24.2633 125.059 24.5863 124.832 24.813C124.617 25.0397 124.305 25.153 123.897 25.153C123.489 25.153 123.172 25.0397 122.945 24.813C122.73 24.5863 122.622 24.2633 122.622 23.844V22.688L122.809 23.351C122.651 23.9063 122.311 24.354 121.789 24.694C121.279 25.0227 120.69 25.187 120.021 25.187ZM120.786 23.266C121.16 23.266 121.483 23.1753 121.755 22.994C122.027 22.8127 122.243 22.5463 122.401 22.195C122.56 21.8323 122.639 21.3733 122.639 20.818C122.639 19.9907 122.469 19.3843 122.129 18.999C121.789 18.6023 121.342 18.404 120.786 18.404C120.424 18.404 120.101 18.489 119.817 18.659C119.545 18.829 119.33 19.0953 119.171 19.458C119.024 19.8093 118.95 20.2627 118.95 20.818C118.95 21.6453 119.12 22.263 119.46 22.671C119.8 23.0677 120.242 23.266 120.786 23.266ZM131.91 25.187C130.924 25.187 130.074 25.0113 129.36 24.66C128.658 24.2973 128.114 23.793 127.728 23.147C127.354 22.4897 127.167 21.719 127.167 20.835C127.167 19.9737 127.349 19.22 127.711 18.574C128.074 17.9167 128.578 17.4067 129.224 17.044C129.882 16.67 130.624 16.483 131.451 16.483C132.052 16.483 132.596 16.585 133.083 16.789C133.571 16.9817 133.99 17.265 134.341 17.639C134.693 18.0017 134.959 18.4493 135.14 18.982C135.322 19.5033 135.412 20.087 135.412 20.733C135.412 20.9483 135.344 21.1127 135.208 21.226C135.072 21.328 134.874 21.379 134.613 21.379H129.275V20.053H133.559L133.287 20.291C133.287 19.8263 133.219 19.441 133.083 19.135C132.947 18.8177 132.749 18.5797 132.488 18.421C132.239 18.2623 131.927 18.183 131.553 18.183C131.134 18.183 130.777 18.2793 130.482 18.472C130.188 18.6647 129.961 18.9423 129.802 19.305C129.644 19.6677 129.564 20.104 129.564 20.614V20.75C129.564 21.6113 129.763 22.246 130.159 22.654C130.567 23.062 131.168 23.266 131.961 23.266C132.233 23.266 132.545 23.232 132.896 23.164C133.248 23.096 133.576 22.9883 133.882 22.841C134.143 22.7163 134.375 22.6767 134.579 22.722C134.783 22.756 134.942 22.8467 135.055 22.994C135.169 23.1413 135.231 23.3113 135.242 23.504C135.265 23.6967 135.225 23.8893 135.123 24.082C135.021 24.2633 134.851 24.4163 134.613 24.541C134.228 24.7563 133.792 24.915 133.304 25.017C132.828 25.1303 132.364 25.187 131.91 25.187Z" fill="#262626"/>
</svg>
