<svg id="Layer_1" enable-background="new 0 0 511.295 511.295" height="512" viewBox="0 0 511.295 511.295" width="512" xmlns="http://www.w3.org/2000/svg"><path d="m486.106 124.549c.028-4.807-2.608-10.732-8.21-13.462l-215.607-109.461c-4.2-2.133-9.158-2.169-13.387-.097l-215.309 105.436c-4.48 2.243-8.439 7.121-8.403 13.472v268.417c0 5.686 3.215 10.883 8.302 13.422l215.31 107.452c3.54 1.658 8.406 2.48 13.389.003l215.607-107.452c5.092-2.537 8.31-7.736 8.31-13.425v-264.218c-.001-.029-.002-.058-.002-.087zm-230.728-92.788 183.159 92.988-90.702 48.079c-51.394-55.646-136.3-53.24-183.817-1.461l-91.288-50.163zm94.591 224.201c.847 45.523-33.997 86.183-79.47 93.173v-101.357l68.31-36.21c7.202 13.354 11.16 28.523 11.16 44.394zm-188.642-.962c0-15.64 3.924-30.955 11.371-44.632l67.8 37.257v101.475c-47.002-7.823-79.907-48.042-79.171-94.1zm94.3-33.293-64.256-35.309c34.85-33.517 93.737-32.044 128.785 1.103zm-200.438-75.912 91.221 50.127c-43.253 81.397 10.557 173.387 94.089 183.459v92.676l-185.31-92.48zm215.31 326.276v-92.664c91.523-11.89 134.057-108.911 94.835-181.9l90.772-48.117v230.18z"/></svg>