<?xml version="1.0" encoding="utf-8"?>
<svg viewBox="0 0 64 64" width="64" height="64" xmlns="http://www.w3.org/2000/svg">
  <g id="surface1" transform="matrix(1, 0, 0, -1, 0, 64)">
    <path style=" stroke:none;fill-rule:nonzero;fill:rgb(100%,100%,100%);fill-opacity:1;" d="M 4.800781 23.914062 L 25.300781 3.417969 C 28.859375 -0.140625 35.152344 -0.132812 38.703125 3.417969 L 59.199219 23.914062 C 62.898438 27.617188 62.898438 33.617188 59.199219 37.316406 C 55.496094 41.015625 49.5 41.015625 45.796875 37.316406 L 41.480469 32.996094 L 41.480469 53.769531 C 41.480469 59.003906 37.238281 63.246094 32.003906 63.246094 C 26.765625 63.246094 22.527344 59.003906 22.527344 53.769531 L 22.527344 32.992188 L 18.199219 37.316406 C 16.351562 39.167969 13.925781 40.089844 11.5 40.089844 C 9.078125 40.089844 6.648438 39.167969 4.800781 37.316406 C 1.101562 33.617188 1.101562 27.617188 4.800781 23.914062 Z M 4.800781 23.914062 "/>
    <path style=" stroke:none;fill-rule:nonzero;fill:rgb(91.372549%,94.509804%,95.686275%);fill-opacity:1;" d="M 31.878906 0.757812 C 34.386719 0.730469 36.898438 1.613281 38.703125 3.417969 L 59.199219 23.914062 C 62.898438 27.617188 62.898438 33.617188 59.199219 37.316406 C 55.496094 41.015625 49.496094 41.015625 45.796875 37.316406 L 41.480469 32.996094 L 41.480469 53.769531 C 41.480469 59.003906 37.234375 63.246094 32.003906 63.246094 C 31.960938 63.246094 31.921875 63.242188 31.878906 63.242188 Z M 31.878906 0.757812 "/>
    <path style=" stroke:none;fill-rule:nonzero;fill:rgb(84.705882%,89.803922%,91.764706%);fill-opacity:1;" d="M 18.199219 37.316406 C 16.351562 39.167969 13.925781 40.089844 11.5 40.089844 C 9.871094 40.089844 8.238281 39.664062 6.777344 38.820312 L 25.300781 20.300781 C 28.859375 16.746094 35.152344 16.753906 38.703125 20.304688 L 57.214844 38.820312 C 53.597656 40.910156 48.890625 40.414062 45.796875 37.316406 L 41.480469 32.996094 L 41.480469 53.769531 C 41.480469 59.003906 37.238281 63.246094 32.003906 63.246094 C 26.765625 63.246094 22.527344 59.003906 22.527344 53.769531 L 22.527344 32.992188 Z M 18.199219 37.316406 "/>
    <path style=" stroke:none;fill-rule:nonzero;fill:rgb(91.372549%,94.509804%,95.686275%);fill-opacity:1;" d="M 32 17.636719 L 32 63.246094 C 26.765625 63.246094 22.523438 59.003906 22.523438 53.769531 L 22.523438 32.992188 L 18.199219 37.316406 C 16.351562 39.167969 13.925781 40.089844 11.5 40.089844 C 9.871094 40.089844 8.238281 39.664062 6.777344 38.820312 L 25.300781 20.300781 C 27.078125 18.523438 29.539062 17.636719 32 17.636719 Z M 32 17.636719 "/>
    <path style=" stroke:none;fill-rule:nonzero;fill:rgb(20%,21.176471%,22.745098%);fill-opacity:1;" d="M 32.003906 64 C 26.367188 64 21.773438 59.414062 21.773438 53.769531 L 21.773438 34.808594 L 18.734375 37.851562 C 16.796875 39.785156 14.230469 40.847656 11.5 40.847656 C 8.765625 40.847656 6.199219 39.777344 4.265625 37.847656 C 0.285156 33.859375 0.285156 27.371094 4.265625 23.382812 L 24.769531 2.882812 C 26.605469 1.050781 29.242188 0 32 0 C 32.003906 0 32.003906 0 32.003906 0 C 34.765625 0 37.402344 1.050781 39.238281 2.882812 L 59.734375 23.382812 C 63.714844 27.371094 63.714844 33.863281 59.730469 37.851562 C 55.738281 41.832031 49.25 41.828125 45.265625 37.847656 L 42.234375 34.808594 L 42.234375 53.769531 C 42.234375 59.414062 37.640625 64 32.003906 64 Z M 22.523438 32.242188 C 22.625 32.242188 22.722656 32.257812 22.816406 32.296875 C 23.097656 32.414062 23.277344 32.6875 23.277344 32.992188 L 23.277344 53.769531 C 23.277344 58.582031 27.191406 62.496094 32.003906 62.496094 C 36.8125 62.496094 40.726562 58.582031 40.726562 53.769531 L 40.726562 32.996094 C 40.726562 32.691406 40.914062 32.421875 41.191406 32.300781 C 41.476562 32.183594 41.796875 32.25 42.007812 32.460938 L 46.328125 36.785156 C 49.726562 40.183594 55.261719 40.183594 58.667969 36.789062 C 62.066406 33.386719 62.066406 27.851562 58.671875 24.445312 L 38.171875 3.949219 C 36.621094 2.394531 34.371094 1.503906 32.003906 1.503906 C 32.003906 1.503906 32.003906 1.503906 32 1.503906 C 29.632812 1.503906 27.386719 2.390625 25.832031 3.949219 L 5.332031 24.445312 C 1.933594 27.851562 1.933594 33.382812 5.328125 36.785156 C 6.980469 38.433594 9.171875 39.339844 11.5 39.339844 C 13.828125 39.339844 16.015625 38.433594 17.671875 36.789062 L 21.996094 32.460938 C 22.140625 32.316406 22.328125 32.242188 22.523438 32.242188 Z M 22.523438 32.242188 "/>
    <path style=" stroke:none;fill-rule:nonzero;fill:rgb(20%,21.176471%,22.745098%);fill-opacity:1;" d="M 41.535156 33.746094 C 41.339844 33.746094 41.148438 33.675781 41 33.527344 L 36.441406 28.976562 C 36.148438 28.679688 36.148438 28.203125 36.441406 27.914062 C 36.738281 27.617188 37.210938 27.617188 37.507812 27.914062 L 42.066406 32.464844 C 42.359375 32.757812 42.359375 33.234375 42.066406 33.527344 C 41.917969 33.675781 41.726562 33.746094 41.535156 33.746094 Z M 41.535156 33.746094 "/>
    <path style=" stroke:none;fill-rule:nonzero;fill:rgb(20%,21.176471%,22.745098%);fill-opacity:1;" d="M 22.464844 33.746094 C 22.273438 33.746094 22.078125 33.675781 21.933594 33.527344 C 21.640625 33.234375 21.640625 32.757812 21.933594 32.464844 L 26.492188 27.914062 C 26.785156 27.617188 27.257812 27.617188 27.554688 27.914062 C 27.847656 28.203125 27.847656 28.679688 27.554688 28.976562 L 22.996094 33.527344 C 22.851562 33.675781 22.660156 33.746094 22.464844 33.746094 Z M 22.464844 33.746094 "/>
    <path style=" stroke:none;fill-rule:nonzero;fill:rgb(100%,56.078431%,56.078431%);fill-opacity:1;" d="M 40.734375 25.585938 C 40.734375 30.410156 36.820312 34.316406 32 34.316406 C 27.179688 34.316406 23.265625 30.410156 23.265625 25.585938 C 23.265625 20.761719 27.179688 16.855469 32 16.855469 C 36.820312 16.855469 40.734375 20.761719 40.734375 25.585938 Z M 40.734375 25.585938 "/>
    <path style=" stroke:none;fill-rule:nonzero;fill:rgb(100%,10.196078%,10.196078%);fill-opacity:1;" d="M 40.734375 25.585938 C 40.734375 29.277344 36.820312 32.273438 32 32.273438 C 27.179688 32.273438 23.265625 29.277344 23.265625 25.585938 C 23.265625 21.890625 27.179688 18.898438 32 18.898438 C 36.820312 18.898438 40.734375 21.890625 40.734375 25.585938 Z M 40.734375 25.585938 "/>
    <path style=" stroke:none;fill-rule:nonzero;fill:rgb(100%,100%,100%);fill-opacity:1;" d="M 23.265625 25.585938 C 23.265625 30.410156 27.179688 34.316406 32 34.316406 C 36.820312 34.316406 40.734375 30.410156 40.734375 25.585938 Z M 23.265625 25.585938 "/>
    <path style=" stroke:none;fill-rule:nonzero;fill:rgb(84.705882%,89.803922%,91.764706%);fill-opacity:1;" d="M 32 32.273438 C 36.820312 32.273438 40.734375 29.277344 40.734375 25.585938 L 23.265625 25.585938 C 23.265625 29.277344 27.179688 32.273438 32 32.273438 Z M 32 32.273438 "/>
    <path style=" stroke:none;fill-rule:nonzero;fill:rgb(20%,21.176471%,22.745098%);fill-opacity:1;" d="M 32 16.105469 C 26.769531 16.105469 22.515625 20.359375 22.515625 25.585938 C 22.515625 30.816406 26.769531 35.066406 32 35.066406 C 37.230469 35.066406 41.484375 30.816406 41.484375 25.585938 C 41.484375 20.359375 37.230469 16.105469 32 16.105469 Z M 32 17.609375 C 36.144531 17.609375 39.558594 20.789062 39.941406 24.832031 L 24.058594 24.832031 C 24.441406 20.789062 27.855469 17.609375 32 17.609375 Z M 32 33.566406 C 27.855469 33.566406 24.4375 30.386719 24.058594 26.335938 L 39.941406 26.335938 C 39.558594 30.386719 36.144531 33.566406 32 33.566406 Z M 32 33.566406 "/>
    <path style=" stroke:none;fill-rule:nonzero;fill:rgb(65.490196%,73.333333%,75.686275%);fill-opacity:1;" d="M 34.886719 26.585938 C 34.886719 28.179688 33.589844 29.472656 32 29.472656 C 30.402344 29.472656 29.113281 28.179688 29.113281 26.585938 C 29.113281 24.992188 30.402344 23.699219 32 23.699219 C 33.589844 23.699219 34.886719 24.992188 34.886719 26.585938 Z M 34.886719 26.585938 "/>
    <path style=" stroke:none;fill-rule:nonzero;fill:rgb(100%,100%,100%);fill-opacity:1;" d="M 34.886719 25.605469 C 34.886719 27.199219 33.589844 28.492188 32 28.492188 C 30.402344 28.492188 29.113281 27.199219 29.113281 25.605469 C 29.113281 24.007812 30.402344 22.722656 32 22.722656 C 33.589844 22.722656 34.886719 24.007812 34.886719 25.605469 Z M 34.886719 25.605469 "/>
    <path style=" stroke:none;fill-rule:nonzero;fill:rgb(84.705882%,89.803922%,91.764706%);fill-opacity:1;" d="M 29.957031 27.644531 C 28.828125 26.515625 28.828125 24.691406 29.957031 23.5625 C 31.085938 22.433594 32.914062 22.433594 34.042969 23.5625 "/>
    <path style=" stroke:none;fill-rule:nonzero;fill:rgb(20%,21.176471%,22.745098%);fill-opacity:1;" d="M 32 29.242188 C 31.027344 29.242188 30.117188 28.867188 29.425781 28.179688 C 28.742188 27.492188 28.363281 26.574219 28.363281 25.605469 C 28.363281 24.632812 28.742188 23.722656 29.425781 23.035156 C 30.117188 22.339844 31.027344 21.964844 32 21.964844 C 32.972656 21.964844 33.886719 22.339844 34.574219 23.035156 C 35.257812 23.722656 35.636719 24.632812 35.636719 25.605469 C 35.636719 26.574219 35.257812 27.492188 34.574219 28.179688 C 33.886719 28.867188 32.972656 29.242188 32 29.242188 Z M 32 23.472656 C 31.429688 23.472656 30.890625 23.691406 30.492188 24.089844 C 30.085938 24.496094 29.867188 25.035156 29.867188 25.605469 C 29.867188 26.175781 30.085938 26.710938 30.492188 27.117188 C 30.890625 27.515625 31.429688 27.742188 32 27.742188 C 32.570312 27.742188 33.109375 27.515625 33.507812 27.117188 C 33.914062 26.710938 34.136719 26.175781 34.136719 25.605469 C 34.136719 25.035156 33.914062 24.496094 33.511719 24.089844 C 33.511719 24.089844 33.511719 24.089844 33.507812 24.089844 C 33.109375 23.691406 32.570312 23.472656 32 23.472656 Z M 32 23.472656 "/>
  </g>
</svg>