<?xml version="1.0" encoding="utf-8"?>
<svg enable-background="new 0 0 20 20" height="36px" viewBox="0 0 20 20" width="36px" fill="#FF505F" xmlns="http://www.w3.org/2000/svg">
  <rect fill="none" height="20" width="20"/>
  <path d="M 12.25 10 C 12.25 11.24 11.24 12.25 10 12.25 C 8.76 12.25 7.75 11.24 7.75 10 C 7.75 8.76 8.76 7.75 10 7.75 C 11.24 7.75 12.25 8.76 12.25 10 Z M 18 10 C 18 14.42 14.42 18 10 18 C 5.58 18 2 14.42 2 10 C 2 5.58 5.58 2 10 2 C 14.42 2 18 5.58 18 10 Z M 16.5 10 L 13.25 10 C 13.25 8.21 11.79 6.75 10 6.75 C 8.21 6.75 6.75 8.21 6.75 10 L 3.5 10 C 3.5 13.58 6.42 16.5 10 16.5 C 13.58 16.5 16.5 13.58 16.5 10 Z" transform="matrix(-1, 0, 0, -1, 20, 20)"/>
</svg>