<?xml version="1.0" encoding="UTF-8"?>
<svg xmlns="http://www.w3.org/2000/svg" xmlns:xlink="http://www.w3.org/1999/xlink" width="32pt" height="32pt" viewBox="0 0 95 95" version="1.1">
<g id="surface1">
<path style=" stroke:none;fill-rule:nonzero;fill:rgb(100%,97.254902%,5.098039%);fill-opacity:1;" d="M 91.246094 39.246094 L 93.882812 27.59375 L 79.363281 34.394531 L 85.136719 41.925781 L 65.203125 50.675781 L 53.449219 41.449219 L 58.941406 32.113281 L 47.5 12.664062 L 36.058594 32.113281 L 41.550781 41.449219 L 29.796875 50.675781 L 9.863281 41.925781 L 15.636719 34.394531 L 1.117188 27.59375 L 3.753906 39.246094 L 3.742188 39.242188 L 6.34375 50.742188 L 12.417969 82.335938 L 82.578125 82.335938 L 88.648438 50.765625 L 91.257812 39.242188 Z M 91.246094 39.246094 "/>
<path style=" stroke:none;fill-rule:nonzero;fill:rgb(100%,81.568627%,4.313725%);fill-opacity:1;" d="M 92.53125 33.5625 L 82.371094 38.320312 L 85.136719 41.925781 L 85.136719 47.265625 L 65.203125 56.011719 L 53.449219 46.789062 L 53.449219 41.449219 L 57.375 34.78125 L 47.5 18 L 37.625 34.78125 L 41.550781 41.449219 L 41.550781 46.789062 L 29.796875 56.011719 L 9.863281 47.265625 L 9.863281 41.925781 L 12.628906 38.320312 L 2.46875 33.5625 L 3.753906 39.246094 L 3.742188 39.242188 L 6.34375 50.742188 L 12.417969 82.335938 L 82.578125 82.335938 L 88.648438 50.765625 L 91.257812 39.242188 L 91.246094 39.246094 Z M 92.53125 33.5625 "/>
<path style=" stroke:none;fill-rule:nonzero;fill:rgb(100%,68.627451%,6.27451%);fill-opacity:1;" d="M 59.234375 64.570312 C 59.234375 71.050781 53.980469 76.304688 47.5 76.304688 C 41.019531 76.304688 35.765625 71.050781 35.765625 64.570312 C 35.765625 58.089844 41.019531 52.835938 47.5 52.835938 C 53.980469 52.835938 59.234375 58.089844 59.234375 64.570312 Z M 59.234375 64.570312 "/>
<path style=" stroke:none;fill-rule:nonzero;fill:rgb(100%,52.54902%,5.098039%);fill-opacity:1;" d="M 59.234375 64.570312 C 59.234375 69.535156 53.980469 73.558594 47.5 73.558594 C 41.019531 73.558594 35.765625 69.535156 35.765625 64.570312 C 35.765625 59.609375 41.019531 55.582031 47.5 55.582031 C 53.980469 55.582031 59.234375 59.609375 59.234375 64.570312 Z M 59.234375 64.570312 "/>
<path style=" stroke:none;fill-rule:nonzero;fill:rgb(100%,97.647059%,87.058824%);fill-opacity:1;" d="M 35.765625 64.570312 C 35.765625 71.050781 41.019531 76.308594 47.5 76.308594 C 53.980469 76.308594 59.234375 71.050781 59.234375 64.570312 Z M 35.765625 64.570312 "/>
<path style=" stroke:none;fill-rule:nonzero;fill:rgb(100%,95.294118%,76.078431%);fill-opacity:1;" d="M 47.5 73.558594 C 53.980469 73.558594 59.234375 69.535156 59.234375 64.570312 L 35.765625 64.570312 C 35.765625 69.535156 41.019531 73.558594 47.5 73.558594 Z M 47.5 73.558594 "/>
<path style=" stroke:none;fill-rule:nonzero;fill:rgb(20%,21.176471%,22.745098%);fill-opacity:1;" d="M 94.582031 26.722656 C 94.25 26.457031 93.792969 26.398438 93.40625 26.582031 L 78.886719 33.382812 C 78.582031 33.523438 78.355469 33.800781 78.273438 34.128906 C 78.195312 34.457031 78.269531 34.804688 78.472656 35.074219 L 83.382812 41.476562 L 65.367188 49.382812 L 54.910156 41.175781 L 59.90625 32.679688 C 60.113281 32.328125 60.113281 31.894531 59.90625 31.546875 L 48.464844 12.097656 C 48.261719 11.753906 47.894531 11.542969 47.5 11.542969 C 47.105469 11.542969 46.738281 11.753906 46.535156 12.097656 L 35.09375 31.546875 C 34.886719 31.898438 34.886719 32.332031 35.09375 32.679688 L 40.089844 41.175781 L 29.632812 49.382812 L 11.621094 41.476562 L 16.527344 35.074219 C 16.730469 34.804688 16.804688 34.457031 16.726562 34.128906 C 16.644531 33.800781 16.417969 33.523438 16.113281 33.382812 L 1.59375 26.582031 C 1.207031 26.398438 0.75 26.453125 0.417969 26.722656 C 0.0859375 26.992188 -0.0664062 27.425781 0.0273438 27.839844 L 2.628906 39.339844 C 2.632812 39.390625 2.640625 39.441406 2.652344 39.488281 L 5.246094 50.953125 L 11.320312 82.546875 C 11.421875 83.074219 11.882812 83.457031 12.421875 83.457031 L 82.578125 83.457031 C 83.117188 83.457031 83.578125 83.074219 83.679688 82.546875 L 89.742188 51.011719 L 92.347656 39.488281 C 92.359375 39.441406 92.367188 39.390625 92.371094 39.339844 L 94.972656 27.839844 C 95.066406 27.425781 94.914062 26.992188 94.582031 26.722656 Z M 58.054688 65.691406 C 57.496094 71.019531 52.976562 75.1875 47.5 75.1875 C 42.023438 75.1875 37.503906 71.019531 36.945312 65.691406 Z M 36.945312 63.453125 C 37.503906 58.121094 42.023438 53.957031 47.5 53.957031 C 52.976562 53.957031 57.496094 58.125 58.054688 63.453125 Z M 90.152344 39 C 90.144531 39.050781 90.136719 39.097656 90.132812 39.148438 L 87.550781 50.554688 L 81.65625 81.21875 L 48.617188 81.21875 L 48.617188 77.367188 C 55.183594 76.800781 60.351562 71.28125 60.351562 64.570312 C 60.351562 57.484375 54.585938 51.71875 47.5 51.71875 C 40.414062 51.71875 34.648438 57.484375 34.648438 64.570312 C 34.648438 71.28125 39.816406 76.800781 46.382812 77.367188 L 46.382812 81.21875 L 13.34375 81.21875 L 7.4375 50.496094 L 4.867188 39.148438 C 4.863281 39.101562 4.855469 39.050781 4.847656 39 L 2.714844 29.574219 L 13.902344 34.816406 L 8.976562 41.246094 C 8.769531 41.519531 8.695312 41.875 8.78125 42.207031 C 8.867188 42.539062 9.101562 42.8125 9.414062 42.953125 L 29.347656 51.699219 C 29.726562 51.863281 30.164062 51.808594 30.488281 51.554688 L 42.242188 42.332031 C 42.683594 41.984375 42.800781 41.367188 42.515625 40.882812 L 37.355469 32.113281 L 47.5 14.867188 L 57.644531 32.113281 L 52.484375 40.882812 C 52.199219 41.367188 52.316406 41.984375 52.757812 42.332031 L 64.511719 51.558594 C 64.835938 51.8125 65.273438 51.867188 65.652344 51.699219 L 85.585938 42.953125 C 85.898438 42.8125 86.132812 42.539062 86.21875 42.207031 C 86.304688 41.875 86.234375 41.519531 86.023438 41.246094 L 81.097656 34.816406 L 92.285156 29.578125 Z M 90.152344 39 "/>
<path style=" stroke:none;fill-rule:nonzero;fill:rgb(20%,21.176471%,22.745098%);fill-opacity:1;" d="M 32.636719 77.425781 L 30.878906 77.425781 C 30.261719 77.425781 29.757812 76.925781 29.757812 76.308594 C 29.757812 75.6875 30.261719 75.1875 30.878906 75.1875 L 32.636719 75.1875 C 33.253906 75.1875 33.753906 75.6875 33.753906 76.308594 C 33.753906 76.925781 33.253906 77.425781 32.636719 77.425781 Z M 32.636719 77.425781 "/>
<path style=" stroke:none;fill-rule:nonzero;fill:rgb(20%,21.176471%,22.745098%);fill-opacity:1;" d="M 27.210938 77.425781 L 25.453125 77.425781 C 24.835938 77.425781 24.335938 76.925781 24.335938 76.308594 C 24.335938 75.6875 24.835938 75.1875 25.453125 75.1875 L 27.210938 75.1875 C 27.828125 75.1875 28.328125 75.6875 28.328125 76.308594 C 28.328125 76.925781 27.828125 77.425781 27.210938 77.425781 Z M 27.210938 77.425781 "/>
<path style=" stroke:none;fill-rule:nonzero;fill:rgb(20%,21.176471%,22.745098%);fill-opacity:1;" d="M 21.785156 77.425781 L 11.730469 77.425781 C 11.113281 77.425781 10.613281 76.925781 10.613281 76.308594 C 10.613281 75.6875 11.113281 75.1875 11.730469 75.1875 L 21.785156 75.1875 C 22.402344 75.1875 22.90625 75.6875 22.90625 76.308594 C 22.90625 76.925781 22.402344 77.425781 21.785156 77.425781 Z M 21.785156 77.425781 "/>
<path style=" stroke:none;fill-rule:nonzero;fill:rgb(20%,21.176471%,22.745098%);fill-opacity:1;" d="M 35.910156 77.425781 C 35.621094 77.425781 35.328125 77.308594 35.121094 77.097656 C 34.910156 76.890625 34.792969 76.597656 34.792969 76.308594 C 34.792969 76.007812 34.910156 75.726562 35.121094 75.515625 C 35.539062 75.097656 36.285156 75.097656 36.699219 75.515625 C 36.910156 75.726562 37.027344 76.015625 37.027344 76.308594 C 37.027344 76.597656 36.910156 76.890625 36.699219 77.097656 C 36.492188 77.308594 36.210938 77.425781 35.910156 77.425781 Z M 35.910156 77.425781 "/>
<path style=" stroke:none;fill-rule:nonzero;fill:rgb(20%,21.176471%,22.745098%);fill-opacity:1;" d="M 64.121094 77.425781 L 62.367188 77.425781 C 61.75 77.425781 61.246094 76.925781 61.246094 76.308594 C 61.246094 75.6875 61.75 75.1875 62.367188 75.1875 L 64.121094 75.1875 C 64.742188 75.1875 65.242188 75.6875 65.242188 76.308594 C 65.242188 76.925781 64.742188 77.425781 64.121094 77.425781 Z M 64.121094 77.425781 "/>
<path style=" stroke:none;fill-rule:nonzero;fill:rgb(20%,21.176471%,22.745098%);fill-opacity:1;" d="M 69.546875 77.425781 L 67.789062 77.425781 C 67.171875 77.425781 66.671875 76.925781 66.671875 76.308594 C 66.671875 75.6875 67.171875 75.1875 67.789062 75.1875 L 69.546875 75.1875 C 70.164062 75.1875 70.664062 75.6875 70.664062 76.308594 C 70.664062 76.925781 70.164062 77.425781 69.546875 77.425781 Z M 69.546875 77.425781 "/>
<path style=" stroke:none;fill-rule:nonzero;fill:rgb(20%,21.176471%,22.745098%);fill-opacity:1;" d="M 83.269531 77.425781 L 73.214844 77.425781 C 72.597656 77.425781 72.09375 76.925781 72.09375 76.308594 C 72.09375 75.6875 72.597656 75.1875 73.214844 75.1875 L 83.269531 75.1875 C 83.886719 75.1875 84.386719 75.6875 84.386719 76.308594 C 84.386719 76.925781 83.886719 77.425781 83.269531 77.425781 Z M 83.269531 77.425781 "/>
<path style=" stroke:none;fill-rule:nonzero;fill:rgb(20%,21.176471%,22.745098%);fill-opacity:1;" d="M 59.089844 77.425781 C 58.796875 77.425781 58.507812 77.308594 58.296875 77.097656 C 58.089844 76.890625 57.96875 76.597656 57.96875 76.308594 C 57.96875 76.007812 58.089844 75.726562 58.296875 75.515625 C 58.714844 75.097656 59.460938 75.097656 59.878906 75.515625 C 60.085938 75.726562 60.207031 76.015625 60.207031 76.308594 C 60.207031 76.597656 60.085938 76.890625 59.878906 77.097656 C 59.671875 77.308594 59.378906 77.425781 59.089844 77.425781 Z M 59.089844 77.425781 "/>
<path style=" stroke:none;fill-rule:nonzero;fill:rgb(65.490196%,73.333333%,75.686275%);fill-opacity:1;" d="M 51.378906 65.917969 C 51.378906 68.058594 49.640625 69.796875 47.5 69.796875 C 45.355469 69.796875 43.621094 68.058594 43.621094 65.917969 C 43.621094 63.773438 45.355469 62.035156 47.5 62.035156 C 49.640625 62.035156 51.378906 63.773438 51.378906 65.917969 Z M 51.378906 65.917969 "/>
<path style=" stroke:none;fill-rule:nonzero;fill:rgb(100%,100%,100%);fill-opacity:1;" d="M 51.378906 64.597656 C 51.378906 66.738281 49.640625 68.476562 47.5 68.476562 C 45.355469 68.476562 43.621094 66.738281 43.621094 64.597656 C 43.621094 62.453125 45.355469 60.71875 47.5 60.71875 C 49.640625 60.71875 51.378906 62.453125 51.378906 64.597656 Z M 51.378906 64.597656 "/>
<path style=" stroke:none;fill-rule:nonzero;fill:rgb(84.705882%,89.803922%,91.764706%);fill-opacity:1;" d="M 44.757812 67.339844 C 43.242188 65.824219 43.242188 63.367188 44.757812 61.855469 C 46.269531 60.339844 48.730469 60.339844 50.242188 61.855469 "/>
<path style=" stroke:none;fill-rule:nonzero;fill:rgb(20%,21.176471%,22.745098%);fill-opacity:1;" d="M 47.5 69.59375 C 46.164062 69.59375 44.90625 69.074219 43.964844 68.128906 C 43.019531 67.1875 42.5 65.933594 42.5 64.597656 C 42.5 63.261719 43.019531 62.003906 43.964844 61.0625 C 45.914062 59.113281 49.085938 59.113281 51.035156 61.0625 C 51.976562 62.003906 52.5 63.261719 52.5 64.597656 C 52.5 65.933594 51.976562 67.1875 51.03125 68.128906 C 50.089844 69.074219 48.835938 69.59375 47.5 69.59375 Z M 47.5 61.835938 C 46.792969 61.835938 46.085938 62.105469 45.546875 62.644531 C 45.023438 63.164062 44.738281 63.859375 44.738281 64.597656 C 44.738281 65.332031 45.023438 66.027344 45.546875 66.546875 C 46.589844 67.59375 48.410156 67.59375 49.453125 66.546875 C 49.972656 66.027344 50.261719 65.332031 50.261719 64.597656 C 50.261719 63.859375 49.972656 63.164062 49.453125 62.644531 C 48.914062 62.105469 48.207031 61.835938 47.5 61.835938 Z M 47.5 61.835938 "/>
</g>
</svg>
