<?xml version="1.0" encoding="UTF-8"?>
<svg xmlns="http://www.w3.org/2000/svg" xmlns:xlink="http://www.w3.org/1999/xlink" width="24pt" height="24pt" viewBox="0 0 95 95" version="1.1">
<g id="surface1">
<path style=" stroke:none;fill-rule:nonzero;fill:rgb(83.921569%,3.529412%,3.529412%);fill-opacity:1;" d="M 70.214844 6.222656 C 59.90625 6.222656 50.859375 12.011719 47.675781 20.597656 C 47.628906 20.726562 47.574219 20.839844 47.5 20.945312 C 47.429688 20.839844 47.367188 20.726562 47.324219 20.597656 C 44.144531 12.007812 35.09375 6.222656 24.78125 6.222656 C 11.738281 6.222656 1.117188 15.574219 1.117188 27.0625 C 1.117188 31.238281 2.503906 35.277344 5.148438 38.714844 C 5.175781 38.738281 5.191406 38.773438 5.191406 38.773438 C 5.277344 38.871094 5.347656 38.933594 5.410156 38.992188 L 47.5 88.777344 L 89.585938 38.992188 C 89.652344 38.933594 89.726562 38.871094 89.8125 38.773438 C 89.8125 38.773438 89.824219 38.738281 89.851562 38.714844 C 92.5 35.277344 93.882812 31.242188 93.882812 27.0625 C 93.882812 15.574219 83.261719 6.222656 70.214844 6.222656 Z M 70.214844 6.222656 "/>
<path style=" stroke:none;fill-rule:nonzero;fill:rgb(100%,10.196078%,10.196078%);fill-opacity:1;" d="M 47.320312 20.597656 C 44.144531 12.007812 35.09375 6.222656 24.78125 6.222656 C 11.738281 6.222656 1.117188 15.574219 1.117188 27.0625 C 1.117188 31.238281 2.503906 35.277344 5.148438 38.714844 C 5.175781 38.738281 5.191406 38.773438 5.191406 38.773438 C 5.277344 38.871094 5.347656 38.933594 5.410156 38.992188 L 47.5 88.777344 L 47.5 20.945312 C 47.429688 20.839844 47.367188 20.726562 47.320312 20.597656 Z M 47.320312 20.597656 "/>
<path style=" stroke:none;fill-rule:nonzero;fill:rgb(21.176471%,77.647059%,100%);fill-opacity:1;" d="M 63.847656 48.285156 C 63.847656 57.316406 56.527344 64.632812 47.5 64.632812 C 38.472656 64.632812 31.152344 57.316406 31.152344 48.285156 C 31.152344 39.257812 38.472656 31.941406 47.5 31.941406 C 56.527344 31.941406 63.847656 39.257812 63.847656 48.285156 Z M 63.847656 48.285156 "/>
<path style=" stroke:none;fill-rule:nonzero;fill:rgb(0%,52.54902%,100%);fill-opacity:1;" d="M 63.847656 48.285156 C 63.847656 41.371094 56.527344 35.765625 47.5 35.765625 C 38.472656 35.765625 31.152344 41.371094 31.152344 48.285156 C 31.152344 55.203125 38.472656 60.808594 47.5 60.808594 C 56.527344 60.808594 63.847656 55.203125 63.847656 48.285156 Z M 63.847656 48.285156 "/>
<path style=" stroke:none;fill-rule:nonzero;fill:rgb(100%,100%,100%);fill-opacity:1;" d="M 31.152344 48.285156 C 31.152344 57.316406 38.472656 64.632812 47.5 64.632812 C 56.527344 64.632812 63.847656 57.316406 63.847656 48.285156 Z M 31.152344 48.285156 "/>
<path style=" stroke:none;fill-rule:nonzero;fill:rgb(84.705882%,89.803922%,91.764706%);fill-opacity:1;" d="M 47.5 60.808594 C 56.527344 60.808594 63.847656 55.203125 63.847656 48.285156 L 31.152344 48.285156 C 31.152344 55.203125 38.472656 60.808594 47.5 60.808594 Z M 47.5 60.808594 "/>
<path style=" stroke:none;fill-rule:nonzero;fill:rgb(20%,21.176471%,22.745098%);fill-opacity:1;" d="M 70.214844 5.105469 C 60.277344 5.105469 51.4375 10.28125 47.5 18.195312 C 43.574219 10.285156 34.726562 5.105469 24.78125 5.105469 C 11.117188 5.105469 0 14.953125 0 27.0625 C 0 31.5 1.46875 35.757812 4.25 39.375 C 4.277344 39.425781 4.3125 39.46875 4.351562 39.515625 C 4.4375 39.613281 4.515625 39.683594 4.601562 39.765625 L 46.644531 89.5 C 46.859375 89.75 47.171875 89.894531 47.5 89.894531 C 47.828125 89.894531 48.140625 89.75 48.355469 89.5 L 90.386719 39.777344 C 90.464844 39.707031 90.546875 39.628906 90.640625 39.523438 C 90.6875 39.472656 90.730469 39.414062 90.765625 39.355469 C 93.535156 35.746094 95 31.496094 95 27.0625 C 95 14.953125 83.878906 5.105469 70.214844 5.105469 Z M 88.964844 38.03125 C 88.957031 38.042969 88.945312 38.058594 88.933594 38.074219 C 88.90625 38.097656 88.878906 38.121094 88.851562 38.148438 C 88.808594 38.1875 88.765625 38.226562 88.730469 38.269531 L 48.644531 85.6875 L 48.644531 79.820312 C 48.644531 79.203125 48.144531 78.703125 47.527344 78.703125 C 46.910156 78.703125 46.410156 79.203125 46.410156 79.820312 L 46.410156 85.753906 L 6.265625 38.269531 C 6.234375 38.234375 6.164062 38.164062 6.128906 38.132812 C 6.109375 38.117188 6.089844 38.097656 6.066406 38.074219 C 6.054688 38.058594 6.042969 38.042969 6.035156 38.03125 C 3.550781 34.804688 2.234375 31.011719 2.234375 27.0625 C 2.234375 16.1875 12.347656 7.34375 24.78125 7.34375 C 34.617188 7.34375 43.253906 12.824219 46.269531 20.980469 C 46.308594 21.085938 46.355469 21.1875 46.410156 21.292969 L 46.410156 27.660156 C 46.410156 28.277344 46.910156 28.777344 47.527344 28.777344 C 48.144531 28.777344 48.644531 28.277344 48.644531 27.660156 L 48.644531 21.140625 C 48.667969 21.089844 48.703125 21.042969 48.722656 20.988281 C 51.746094 12.824219 60.382812 7.34375 70.214844 7.34375 C 82.648438 7.34375 92.765625 16.1875 92.765625 27.0625 C 92.765625 31.015625 91.449219 34.808594 88.964844 38.03125 Z M 88.964844 38.03125 "/>
<path style=" stroke:none;fill-rule:nonzero;fill:rgb(20%,21.176471%,22.745098%);fill-opacity:1;" d="M 48.632812 30.863281 C 48.574219 30.300781 48.105469 29.863281 47.527344 29.863281 C 46.949219 29.863281 46.480469 30.300781 46.421875 30.859375 C 37.292969 31.417969 30.035156 39.019531 30.035156 48.285156 C 30.035156 57.550781 37.285156 65.148438 46.410156 65.714844 L 46.410156 71.691406 C 46.410156 72.308594 46.910156 72.808594 47.527344 72.808594 C 48.144531 72.808594 48.644531 72.308594 48.644531 71.691406 L 48.644531 65.710938 C 57.742188 65.117188 64.964844 57.53125 64.964844 48.285156 C 64.964844 39.039062 57.738281 31.449219 48.632812 30.863281 Z M 47.5 63.515625 C 39.480469 63.515625 32.902344 57.28125 32.328125 49.40625 L 62.671875 49.40625 C 62.09375 57.28125 55.519531 63.515625 47.5 63.515625 Z M 32.328125 47.167969 C 32.894531 39.414062 39.285156 33.261719 47.140625 33.078125 C 47.261719 33.121094 47.390625 33.148438 47.527344 33.148438 C 47.660156 33.148438 47.785156 33.121094 47.902344 33.078125 C 55.738281 33.285156 62.101562 39.429688 62.671875 47.167969 Z M 32.328125 47.167969 "/>
<path style=" stroke:none;fill-rule:nonzero;fill:rgb(20%,21.176471%,22.745098%);fill-opacity:1;" d="M 47.527344 74.125 C 46.910156 74.125 46.410156 74.625 46.410156 75.242188 L 46.410156 76.292969 C 46.410156 76.910156 46.910156 77.410156 47.527344 77.410156 C 48.144531 77.410156 48.644531 76.910156 48.644531 76.292969 L 48.644531 75.242188 C 48.644531 74.625 48.144531 74.125 47.527344 74.125 Z M 47.527344 74.125 "/>
<path style=" stroke:none;fill-rule:nonzero;fill:rgb(65.490196%,73.333333%,75.686275%);fill-opacity:1;" d="M 52.902344 50.160156 C 52.902344 53.144531 50.484375 55.5625 47.5 55.5625 C 44.515625 55.5625 42.09375 53.144531 42.09375 50.160156 C 42.09375 47.175781 44.515625 44.753906 47.5 44.753906 C 50.484375 44.753906 52.902344 47.175781 52.902344 50.160156 Z M 52.902344 50.160156 "/>
<path style=" stroke:none;fill-rule:nonzero;fill:rgb(100%,100%,100%);fill-opacity:1;" d="M 52.902344 48.324219 C 52.902344 51.308594 50.484375 53.726562 47.5 53.726562 C 44.515625 53.726562 42.09375 51.308594 42.09375 48.324219 C 42.09375 45.335938 44.515625 42.917969 47.5 42.917969 C 50.484375 42.917969 52.902344 45.335938 52.902344 48.324219 Z M 52.902344 48.324219 "/>
<path style=" stroke:none;fill-rule:nonzero;fill:rgb(84.705882%,89.803922%,91.764706%);fill-opacity:1;" d="M 43.679688 52.144531 C 41.566406 50.035156 41.566406 46.609375 43.679688 44.5 C 45.789062 42.390625 49.210938 42.390625 51.320312 44.5 "/>
<path style=" stroke:none;fill-rule:nonzero;fill:rgb(20%,21.176471%,22.745098%);fill-opacity:1;" d="M 47.5 54.839844 C 45.828125 54.839844 44.160156 54.207031 42.886719 52.933594 C 40.34375 50.390625 40.34375 46.253906 42.886719 43.710938 C 44.121094 42.476562 45.757812 41.800781 47.5 41.800781 C 49.242188 41.800781 50.878906 42.476562 52.109375 43.710938 C 53.34375 44.941406 54.023438 46.582031 54.023438 48.324219 C 54.023438 50.0625 53.34375 51.703125 52.109375 52.933594 C 50.839844 54.207031 49.171875 54.839844 47.5 54.839844 Z M 47.5 44.035156 C 46.355469 44.035156 45.277344 44.480469 44.46875 45.292969 C 42.796875 46.964844 42.796875 49.683594 44.46875 51.355469 C 46.140625 53.023438 48.859375 53.023438 50.53125 51.355469 C 51.339844 50.546875 51.785156 49.46875 51.785156 48.324219 C 51.785156 47.179688 51.339844 46.101562 50.53125 45.292969 C 49.722656 44.480469 48.644531 44.035156 47.5 44.035156 Z M 47.5 44.035156 "/>
</g>
</svg>
