<?xml version="1.0" encoding="UTF-8"?>
<svg xmlns="http://www.w3.org/2000/svg" xmlns:xlink="http://www.w3.org/1999/xlink" width="54pt" height="54pt" viewBox="0 0 54 54" version="1.1">
<g id="surface1">
<path style=" stroke:none;fill-rule:nonzero;fill:rgb(100%,100%,100%);fill-opacity:1;" d="M 26.847656 11.070312 L 18.476562 12.125 L 15.378906 15.875 L 11.316406 21.75 L 8.351562 29.25 L 8.699219 35.546875 C 8.699219 35.546875 9.15625 39.65625 12.015625 40.984375 C 14.878906 42.3125 15.378906 43.875 15.378906 43.875 C 15.378906 43.875 24.933594 46.4375 27 46.0625 C 29.066406 45.6875 37.816406 44.6875 39.441406 43.5 C 41.066406 42.3125 43.066406 40.328125 43.066406 40.328125 L 45.726562 34.410156 L 44.988281 27.460938 L 42.816406 19.75 C 42.816406 19.75 38.878906 15.308594 38.691406 14.96875 C 38.503906 14.625 34.066406 12.320312 34.066406 12.320312 Z M 26.847656 11.070312 "/>
<path style=" stroke:none;fill-rule:nonzero;fill:rgb(24.705882%,24.705882%,24.705882%);fill-opacity:1;" d="M 19.972656 14.6875 L 17.472656 16.9375 L 13.347656 18.96875 L 10.316406 23.6875 L 7.816406 21.9375 L 4.816406 14.9375 C 4.816406 14.9375 6.191406 10.6875 6.566406 10.3125 C 6.941406 9.9375 10.316406 8.0625 10.316406 8.0625 L 14.191406 8.9375 Z M 19.972656 14.6875 "/>
<path style=" stroke:none;fill-rule:nonzero;fill:rgb(24.705882%,24.705882%,24.705882%);fill-opacity:1;" d="M 33.972656 14.65625 L 36.890625 17.128906 L 41.285156 19.46875 L 43.566406 23.6875 L 46.066406 21.9375 L 49.066406 14.9375 C 49.066406 14.9375 47.691406 10.6875 47.316406 10.3125 C 46.941406 9.9375 43.566406 8.0625 43.566406 8.0625 L 39.691406 8.9375 Z M 33.972656 14.65625 "/>
<path style=" stroke:none;fill-rule:nonzero;fill:rgb(24.705882%,24.705882%,24.705882%);fill-opacity:1;" d="M 26.066406 30.75 C 26.066406 30.75 23.816406 35.125 21.441406 35 C 19.066406 34.875 16.628906 33.9375 16.628906 33.9375 L 15.378906 30.875 L 16.503906 28.375 L 18.253906 26.5 L 20.566406 25.5 L 23.566406 25.4375 L 24.628906 26.5 Z M 26.066406 30.75 "/>
<path style=" stroke:none;fill-rule:nonzero;fill:rgb(24.705882%,24.705882%,24.705882%);fill-opacity:1;" d="M 28.003906 30.75 C 28.003906 30.75 30.253906 35.125 32.628906 35 C 35.003906 34.875 37.441406 33.9375 37.441406 33.9375 L 38.691406 30.875 L 37.566406 28.375 L 35.816406 26.5 L 33.503906 25.5 L 30.503906 25.4375 L 29.441406 26.5 Z M 28.003906 30.75 "/>
<path style=" stroke:none;fill-rule:nonzero;fill:rgb(24.705882%,24.705882%,24.705882%);fill-opacity:1;" d="M 23.644531 35.125 C 23.644531 35.125 27.347656 33.484375 30.253906 35.171875 L 29.691406 37 L 24.957031 37.375 Z M 23.644531 35.125 "/>
<path style=" stroke:none;fill-rule:nonzero;fill:rgb(0%,0%,0%);fill-opacity:1;" d="M 22.953125 29.25 C 22.953125 30.078125 22.28125 30.75 21.453125 30.75 C 20.625 30.75 19.953125 30.078125 19.953125 29.25 C 19.953125 28.421875 20.625 27.75 21.453125 27.75 C 22.28125 27.75 22.953125 28.421875 22.953125 29.25 Z M 22.953125 29.25 "/>
<path style="fill:none;stroke-width:2;stroke-linecap:round;stroke-linejoin:round;stroke:rgb(0%,0%,0%);stroke-opacity:1;stroke-miterlimit:10;" d="M 35.96875 49.135417 C 35.96875 49.135417 31.895833 50.932292 31.796875 47.921875 " transform="matrix(0.75,0,0,0.75,0,0)"/>
<path style="fill:none;stroke-width:2;stroke-linecap:round;stroke-linejoin:round;stroke:rgb(0%,0%,0%);stroke-opacity:1;stroke-miterlimit:10;" d="M 25.979167 18.895833 C 25.979167 18.895833 18.291667 7.270833 11.041667 12.083333 C 4.4375 16.463542 7.130208 26.041667 11.640625 29 " transform="matrix(0.75,0,0,0.75,0,0)"/>
<path style="fill:none;stroke-width:2;stroke-linecap:round;stroke-linejoin:round;stroke:rgb(0%,0%,0%);stroke-opacity:1;stroke-miterlimit:10;" d="M 21.041667 57.583333 C 5.104167 51.270833 13.1875 33.567708 13.1875 33.567708 C 13.1875 33.567708 16.833333 24.208333 22.53125 21.958333 " transform="matrix(0.75,0,0,0.75,0,0)"/>
<path style="fill:none;stroke-width:2;stroke-linecap:round;stroke-linejoin:round;stroke:rgb(0%,0%,0%);stroke-opacity:1;stroke-miterlimit:10;" d="M 51.067708 57.583333 C 67.005208 51.270833 58.916667 33.567708 58.916667 33.567708 C 58.916667 33.567708 55.270833 24.208333 49.572917 21.958333 " transform="matrix(0.75,0,0,0.75,0,0)"/>
<path style=" stroke:none;fill-rule:nonzero;fill:rgb(0%,0%,0%);fill-opacity:1;" d="M 34 29.25 C 34 30.078125 33.328125 30.75 32.5 30.75 C 31.671875 30.75 31 30.078125 31 29.25 C 31 28.421875 31.671875 27.75 32.5 27.75 C 33.328125 27.75 34 28.421875 34 29.25 Z M 34 29.25 "/>
<path style="fill:none;stroke-width:2;stroke-linecap:round;stroke-linejoin:round;stroke:rgb(0%,0%,0%);stroke-opacity:1;stroke-miterlimit:10;" d="M 44.65625 51.53125 C 43.4375 53.453125 40.604167 56.651042 36.395833 53.770833 L 35.541667 53.770833 C 31.333333 56.651042 28.5 53.453125 27.28125 51.53125 " transform="matrix(0.75,0,0,0.75,0,0)"/>
<path style="fill:none;stroke-width:2;stroke-linecap:round;stroke-linejoin:round;stroke:rgb(0%,0%,0%);stroke-opacity:1;stroke-miterlimit:10;" d="M 35.96875 49.135417 C 35.96875 49.135417 40.036458 50.932292 40.140625 47.921875 " transform="matrix(0.75,0,0,0.75,0,0)"/>
<path style="fill:none;stroke-width:2;stroke-linecap:round;stroke-linejoin:round;stroke:rgb(0%,0%,0%);stroke-opacity:1;stroke-miterlimit:10;" d="M 45.958333 18.895833 C 45.958333 18.895833 53.645833 7.270833 60.895833 12.083333 C 67.5 16.463542 64.807292 26.041667 60.291667 29 " transform="matrix(0.75,0,0,0.75,0,0)"/>
<path style="fill:none;stroke-width:2;stroke-linecap:round;stroke-linejoin:round;stroke:rgb(0%,0%,0%);stroke-opacity:1;stroke-miterlimit:10;" d="M 24.635417 16.953125 C 24.635417 16.953125 33.34375 12.020833 46.958333 16.953125 " transform="matrix(0.75,0,0,0.75,0,0)"/>
<path style="fill:none;stroke-width:2;stroke-linecap:round;stroke-linejoin:round;stroke:rgb(0%,0%,0%);stroke-opacity:1;stroke-miterlimit:10;" d="M 30.604167 59.583333 C 34.192708 60.802083 37.770833 60.8125 41.333333 59.583333 " transform="matrix(0.75,0,0,0.75,0,0)"/>
<path style="fill:none;stroke-width:2;stroke-linecap:round;stroke-linejoin:round;stroke:rgb(0%,0%,0%);stroke-opacity:1;stroke-miterlimit:10;" d="M 35.96875 49.135417 L 36 53.770833 " transform="matrix(0.75,0,0,0.75,0,0)"/>
<path style="fill:none;stroke-width:2;stroke-linecap:round;stroke-linejoin:round;stroke:rgb(0%,0%,0%);stroke-opacity:1;stroke-miterlimit:10;" d="M 43.9375 45.833333 C 43.9375 45.833333 51.307292 47.447917 51.348958 41.630208 C 51.375 38.609375 49.453125 35.947917 46.744792 34.614583 C 43.223958 32.880208 38.3125 32.036458 38.3125 40.833333 " transform="matrix(0.75,0,0,0.75,0,0)"/>
<path style="fill:none;stroke-width:2;stroke-linecap:round;stroke-linejoin:round;stroke:rgb(0%,0%,0%);stroke-opacity:1;stroke-miterlimit:10;" d="M 28.255208 45.833333 C 28.255208 45.833333 20.890625 47.447917 20.84375 41.630208 C 20.822917 38.609375 22.739583 35.947917 25.453125 34.614583 C 28.973958 32.880208 33.880208 32.036458 33.880208 40.833333 " transform="matrix(0.75,0,0,0.75,0,0)"/>
</g>
</svg>
