<?xml version="1.0" encoding="UTF-8"?>
<svg xmlns="http://www.w3.org/2000/svg" xmlns:xlink="http://www.w3.org/1999/xlink" width="48pt" height="48pt" viewBox="0 0 48 48" version="1.1">
<g id="surface1">
<path style=" stroke:none;fill-rule:nonzero;fill:rgb(100%,83.137255%,0%);fill-opacity:1;" d="M 34.0625 2.226562 L 24.300781 2.226562 L 18.921875 11.671875 L 23.289062 11.671875 L 17.554688 23.324219 L 32.628906 9.835938 L 27.734375 9.835938 Z M 34.0625 2.226562 "/>
<path style=" stroke:none;fill-rule:nonzero;fill:rgb(100%,69.019608%,0%);fill-opacity:1;" d="M 22.4375 5.5 L 18.921875 11.671875 L 23.289062 11.671875 L 17.554688 23.324219 L 28.96875 13.109375 L 25.164062 13.109375 L 27.890625 9.835938 L 27.734375 9.835938 L 31.339844 5.5 Z M 22.4375 5.5 "/>
<path style=" stroke:none;fill-rule:nonzero;fill:rgb(20%,21.176471%,22.745098%);fill-opacity:1;" d="M 17.554688 23.886719 C 17.4375 23.886719 17.316406 23.851562 17.214844 23.773438 C 17 23.609375 16.929688 23.316406 17.050781 23.074219 L 22.386719 12.234375 L 18.921875 12.234375 C 18.71875 12.234375 18.53125 12.125 18.429688 11.953125 C 18.332031 11.78125 18.328125 11.5625 18.429688 11.390625 L 23.8125 1.945312 C 23.910156 1.773438 24.097656 1.664062 24.300781 1.664062 L 34.0625 1.664062 C 34.28125 1.664062 34.484375 1.789062 34.574219 1.984375 C 34.667969 2.1875 34.640625 2.417969 34.5 2.585938 L 28.933594 9.273438 L 32.628906 9.273438 C 32.863281 9.273438 33.070312 9.414062 33.15625 9.632812 C 33.238281 9.851562 33.179688 10.101562 33.007812 10.257812 L 17.929688 23.742188 C 17.824219 23.839844 17.6875 23.886719 17.554688 23.886719 Z M 19.890625 11.105469 L 23.289062 11.105469 C 23.484375 11.105469 23.667969 11.207031 23.769531 11.371094 C 23.875 11.539062 23.882812 11.742188 23.796875 11.917969 L 19.34375 20.96875 L 31.15625 10.398438 L 27.734375 10.398438 C 27.515625 10.398438 27.3125 10.273438 27.222656 10.074219 C 27.128906 9.875 27.160156 9.640625 27.296875 9.476562 L 32.863281 2.789062 L 24.625 2.789062 Z M 19.890625 11.105469 "/>
<path style=" stroke:none;fill-rule:nonzero;fill:rgb(100%,97.254902%,0%);fill-opacity:1;" d="M 42.484375 31.710938 C 42.484375 39.476562 34.210938 45.773438 24 45.773438 C 13.789062 45.773438 5.515625 39.476562 5.515625 31.710938 C 5.515625 23.941406 13.789062 14.632812 24 14.632812 C 34.210938 14.632812 42.484375 23.941406 42.484375 31.710938 Z M 42.484375 31.710938 "/>
<path style=" stroke:none;fill-rule:nonzero;fill:rgb(100%,83.137255%,0%);fill-opacity:1;" d="M 42.484375 31.710938 C 42.484375 39.476562 34.210938 45.773438 24 45.773438 C 13.789062 45.773438 5.515625 39.476562 5.515625 31.710938 C 5.515625 23.941406 13.789062 18.585938 24 18.585938 C 34.210938 18.589844 42.484375 23.941406 42.484375 31.710938 Z M 42.484375 31.710938 "/>
<path style=" stroke:none;fill-rule:nonzero;fill:rgb(100%,97.254902%,0%);fill-opacity:1;" d="M 27.9375 28.03125 C 27.9375 28.550781 26.171875 28.648438 24 28.648438 C 21.828125 28.648438 20.0625 28.550781 20.0625 28.03125 C 20.0625 27.503906 21.828125 26.136719 24 26.136719 C 26.171875 26.136719 27.9375 27.503906 27.9375 28.03125 Z M 27.9375 28.03125 "/>
<path style=" stroke:none;fill-rule:nonzero;fill:rgb(100%,69.019608%,0%);fill-opacity:1;" d="M 42.484375 31.710938 C 42.484375 39.476562 34.210938 45.773438 24 45.773438 C 13.789062 45.773438 5.515625 39.476562 5.515625 31.710938 C 5.515625 23.9375 7.867188 38.597656 24 38.597656 C 40.132812 38.597656 42.484375 23.9375 42.484375 31.710938 Z M 42.484375 31.710938 "/>
<path style=" stroke:none;fill-rule:nonzero;fill:rgb(20%,21.176471%,22.745098%);fill-opacity:1;" d="M 24 46.335938 C 13.496094 46.335938 4.953125 39.773438 4.953125 31.710938 C 4.953125 23.71875 13.449219 14.070312 24 14.070312 C 34.550781 14.070312 43.046875 23.71875 43.046875 31.710938 C 43.046875 39.773438 34.503906 46.335938 24 46.335938 Z M 24 15.195312 C 14.070312 15.195312 6.078125 24.230469 6.078125 31.710938 C 6.078125 39.152344 14.117188 45.210938 24 45.210938 C 33.882812 45.210938 41.921875 39.15625 41.921875 31.710938 C 41.921875 24.230469 33.929688 15.195312 24 15.195312 Z M 24 15.195312 "/>
<path style=" stroke:none;fill-rule:nonzero;fill:rgb(100%,83.137255%,0%);fill-opacity:1;" d="M 3.453125 17.757812 C 5.851562 21.71875 9.210938 24.046875 12.464844 24.445312 C 13.023438 20.40625 12.136719 15.71875 9.738281 11.761719 C 7.339844 7.800781 3.976562 5.472656 0.726562 5.070312 C 0.167969 9.109375 1.054688 13.796875 3.453125 17.757812 Z M 3.453125 17.757812 "/>
<path style=" stroke:none;fill-rule:nonzero;fill:rgb(100%,69.019608%,0%);fill-opacity:1;" d="M 0.726562 5.070312 C 0.167969 9.109375 1.054688 13.796875 3.453125 17.757812 C 5.851562 21.71875 9.214844 24.046875 12.464844 24.445312 Z M 0.726562 5.070312 "/>
<path style=" stroke:none;fill-rule:nonzero;fill:rgb(20%,21.176471%,22.745098%);fill-opacity:1;" d="M 12.992188 19.269531 C 12.601562 16.515625 11.640625 13.816406 10.21875 11.46875 C 7.8125 7.492188 4.375 4.953125 0.796875 4.511719 C 0.492188 4.476562 0.210938 4.6875 0.171875 4.992188 C -0.4375 9.351562 0.585938 14.109375 2.972656 18.046875 C 4.601562 20.742188 6.714844 22.789062 9.078125 23.976562 C 9.164062 24.015625 9.25 24.035156 9.332031 24.035156 C 9.539062 24.035156 9.738281 23.921875 9.835938 23.726562 C 9.976562 23.445312 9.863281 23.109375 9.585938 22.96875 C 7.410156 21.878906 5.457031 19.976562 3.9375 17.464844 C 3.238281 16.3125 2.664062 15.085938 2.21875 13.816406 C 4.515625 13.441406 7.164062 14.609375 6.847656 8.9375 C 7.726562 9.828125 8.539062 10.867188 9.257812 12.054688 C 10.601562 14.273438 11.507812 16.820312 11.875 19.429688 C 11.921875 19.734375 12.207031 19.945312 12.515625 19.90625 C 12.820312 19.863281 13.035156 19.578125 12.992188 19.269531 Z M 12.992188 19.269531 "/>
<path style=" stroke:none;fill-rule:nonzero;fill:rgb(100%,83.137255%,0%);fill-opacity:1;" d="M 44.546875 17.757812 C 42.148438 21.71875 38.785156 24.046875 35.535156 24.445312 C 34.976562 20.40625 35.863281 15.71875 38.261719 11.761719 C 40.660156 7.800781 44.023438 5.472656 47.273438 5.070312 C 47.832031 9.109375 46.945312 13.796875 44.546875 17.757812 Z M 44.546875 17.757812 "/>
<path style=" stroke:none;fill-rule:nonzero;fill:rgb(100%,69.019608%,0%);fill-opacity:1;" d="M 47.273438 5.070312 C 47.832031 9.109375 46.945312 13.796875 44.546875 17.757812 C 42.148438 21.71875 38.785156 24.046875 35.535156 24.445312 Z M 47.273438 5.070312 "/>
<path style=" stroke:none;fill-rule:nonzero;fill:rgb(20%,21.176471%,22.745098%);fill-opacity:1;" d="M 47.828125 4.992188 C 47.789062 4.6875 47.507812 4.476562 47.203125 4.511719 C 43.625 4.953125 40.1875 7.492188 37.78125 11.46875 C 36.359375 13.820312 35.398438 16.515625 35.007812 19.269531 C 34.964844 19.578125 35.179688 19.863281 35.484375 19.90625 C 35.796875 19.949219 36.078125 19.734375 36.125 19.429688 C 36.492188 16.820312 37.398438 14.273438 38.742188 12.054688 C 39.460938 10.867188 40.273438 9.828125 41.152344 8.9375 C 40.835938 14.613281 43.484375 13.441406 45.78125 13.816406 C 45.335938 15.085938 44.761719 16.3125 44.0625 17.464844 C 42.542969 19.976562 40.589844 21.878906 38.414062 22.96875 C 38.136719 23.109375 38.023438 23.445312 38.164062 23.726562 C 38.261719 23.921875 38.460938 24.039062 38.667969 24.039062 C 38.75 24.039062 38.835938 24.015625 38.921875 23.976562 C 41.285156 22.789062 43.398438 20.742188 45.027344 18.050781 C 47.414062 14.109375 48.4375 9.351562 47.828125 4.992188 Z M 47.828125 4.992188 "/>
<path style=" stroke:none;fill-rule:nonzero;fill:rgb(100%,10.196078%,10.196078%);fill-opacity:1;" d="M 14.988281 32.972656 C 14.988281 34.425781 13.808594 35.605469 12.351562 35.605469 C 10.898438 35.605469 9.71875 34.425781 9.71875 32.972656 C 9.71875 31.515625 10.898438 30.335938 12.351562 30.335938 C 13.808594 30.335938 14.988281 31.515625 14.988281 32.972656 Z M 14.988281 32.972656 "/>
<path style=" stroke:none;fill-rule:nonzero;fill:rgb(83.921569%,11.372549%,11.372549%);fill-opacity:1;" d="M 14.988281 32.972656 C 14.988281 34.425781 13.808594 35.605469 12.351562 35.605469 C 10.898438 35.605469 9.71875 34.425781 9.71875 32.972656 "/>
<path style=" stroke:none;fill-rule:nonzero;fill:rgb(100%,10.196078%,10.196078%);fill-opacity:1;" d="M 38.28125 32.972656 C 38.28125 34.429688 37.101562 35.609375 35.644531 35.609375 C 34.1875 35.609375 33.007812 34.429688 33.007812 32.972656 C 33.007812 31.515625 34.1875 30.335938 35.644531 30.335938 C 37.101562 30.335938 38.28125 31.515625 38.28125 32.972656 Z M 38.28125 32.972656 "/>
<path style=" stroke:none;fill-rule:nonzero;fill:rgb(83.921569%,11.372549%,11.372549%);fill-opacity:1;" d="M 38.28125 32.972656 C 38.28125 34.425781 37.101562 35.605469 35.644531 35.605469 C 34.1875 35.605469 33.007812 34.425781 33.007812 32.972656 "/>
<path style=" stroke:none;fill-rule:nonzero;fill:rgb(20%,21.176471%,22.745098%);fill-opacity:1;" d="M 27.617188 30.15625 C 27.308594 30.15625 27.054688 30.40625 27.054688 30.71875 C 27.054688 31.257812 26.617188 31.691406 26.085938 31.691406 L 25.539062 31.691406 C 25 31.691406 24.5625 31.257812 24.5625 30.71875 L 24.5625 30.171875 C 24.5625 30.148438 24.558594 30.117188 24.554688 30.09375 L 25.726562 29.507812 C 25.957031 29.390625 26.078125 29.128906 26.019531 28.875 C 25.960938 28.621094 25.734375 28.441406 25.472656 28.441406 L 22.527344 28.441406 C 22.265625 28.441406 22.039062 28.621094 21.976562 28.875 C 21.921875 29.128906 22.042969 29.390625 22.273438 29.507812 L 23.445312 30.09375 C 23.4375 30.117188 23.4375 30.148438 23.4375 30.171875 L 23.4375 30.71875 C 23.4375 31.257812 23 31.691406 22.460938 31.691406 L 21.914062 31.691406 C 21.378906 31.691406 20.945312 31.257812 20.945312 30.71875 C 20.945312 30.40625 20.6875 30.15625 20.378906 30.15625 C 20.070312 30.15625 19.816406 30.40625 19.816406 30.71875 C 19.816406 31.875 20.757812 32.820312 21.914062 32.820312 L 22.460938 32.820312 C 23.070312 32.820312 23.617188 32.558594 24 32.148438 C 24.382812 32.558594 24.929688 32.820312 25.539062 32.820312 L 26.085938 32.820312 C 27.242188 32.820312 28.183594 31.875 28.183594 30.71875 C 28.183594 30.40625 27.929688 30.15625 27.617188 30.15625 Z M 27.617188 30.15625 "/>
<path style=" stroke:none;fill-rule:nonzero;fill:rgb(42.745098%,36.078431%,30.196078%);fill-opacity:1;" d="M 17.929688 26.351562 C 17.929688 28.019531 16.574219 29.375 14.90625 29.375 C 13.234375 29.375 11.878906 28.019531 11.878906 26.351562 C 11.878906 24.679688 13.234375 23.324219 14.90625 23.324219 C 16.574219 23.324219 17.929688 24.679688 17.929688 26.351562 Z M 17.929688 26.351562 "/>
<path style=" stroke:none;fill-rule:nonzero;fill:rgb(100%,100%,100%);fill-opacity:1;" d="M 14.632812 25.367188 C 14.632812 26.046875 14.078125 26.597656 13.398438 26.597656 C 12.71875 26.597656 12.167969 26.046875 12.167969 25.367188 C 12.167969 24.6875 12.71875 24.132812 13.398438 24.132812 C 14.078125 24.132812 14.632812 24.6875 14.632812 25.367188 Z M 14.632812 25.367188 "/>
<path style=" stroke:none;fill-rule:nonzero;fill:rgb(20%,21.176471%,22.745098%);fill-opacity:1;" d="M 14.90625 22.757812 C 13.6875 22.757812 12.609375 23.375 11.960938 24.304688 C 11.921875 24.359375 11.882812 24.414062 11.851562 24.472656 C 11.515625 25.019531 11.316406 25.660156 11.316406 26.351562 C 11.316406 28.328125 12.925781 29.9375 14.90625 29.9375 C 16.882812 29.9375 18.492188 28.328125 18.492188 26.351562 C 18.492188 24.367188 16.882812 22.757812 14.90625 22.757812 Z M 14.90625 28.8125 C 13.882812 28.8125 13.003906 28.183594 12.632812 27.296875 C 12.890625 27.289062 13.199219 27.21875 13.546875 27.148438 C 13.683594 27.132812 13.8125 27.109375 13.9375 27.070312 C 14.242188 27.015625 14.5625 26.972656 14.90625 26.972656 C 15.8125 26.972656 16.621094 27.28125 17.175781 27.296875 C 16.804688 28.183594 15.925781 28.8125 14.90625 28.8125 Z M 14.90625 28.8125 "/>
<path style=" stroke:none;fill-rule:nonzero;fill:rgb(100%,100%,100%);fill-opacity:1;" d="M 14.070312 25.367188 C 14.070312 25.734375 13.769531 26.03125 13.398438 26.03125 C 13.03125 26.03125 12.734375 25.734375 12.734375 25.367188 C 12.734375 24.996094 13.03125 24.695312 13.398438 24.695312 C 13.769531 24.695312 14.070312 24.996094 14.070312 25.367188 Z M 14.070312 25.367188 "/>
<path style=" stroke:none;fill-rule:nonzero;fill:rgb(42.745098%,36.078431%,30.196078%);fill-opacity:1;" d="M 36.117188 26.351562 C 36.117188 28.019531 34.765625 29.375 33.09375 29.375 C 31.425781 29.375 30.070312 28.019531 30.070312 26.351562 C 30.070312 24.679688 31.421875 23.324219 33.09375 23.324219 C 34.765625 23.324219 36.117188 24.679688 36.117188 26.351562 Z M 36.117188 26.351562 "/>
<path style=" stroke:none;fill-rule:nonzero;fill:rgb(100%,100%,100%);fill-opacity:1;" d="M 32.824219 25.367188 C 32.824219 26.046875 32.273438 26.597656 31.59375 26.597656 C 30.910156 26.597656 30.359375 26.046875 30.359375 25.367188 C 30.359375 24.6875 30.910156 24.132812 31.59375 24.132812 C 32.273438 24.132812 32.824219 24.6875 32.824219 25.367188 Z M 32.824219 25.367188 "/>
<path style=" stroke:none;fill-rule:nonzero;fill:rgb(20%,21.176471%,22.745098%);fill-opacity:1;" d="M 33.09375 22.757812 C 31.875 22.757812 30.800781 23.375 30.152344 24.304688 C 30.109375 24.359375 30.078125 24.414062 30.042969 24.476562 C 29.703125 25.023438 29.507812 25.664062 29.507812 26.351562 C 29.507812 28.328125 31.117188 29.9375 33.09375 29.9375 C 35.074219 29.9375 36.683594 28.328125 36.683594 26.351562 C 36.683594 24.367188 35.074219 22.757812 33.09375 22.757812 Z M 33.09375 28.8125 C 32.074219 28.8125 31.195312 28.183594 30.824219 27.296875 C 31.082031 27.289062 31.398438 27.21875 31.75 27.144531 C 31.875 27.132812 32 27.109375 32.117188 27.074219 C 32.421875 27.015625 32.75 26.972656 33.09375 26.972656 C 34 26.972656 34.8125 27.28125 35.367188 27.296875 C 34.996094 28.183594 34.117188 28.8125 33.09375 28.8125 Z M 33.09375 28.8125 "/>
<path style=" stroke:none;fill-rule:nonzero;fill:rgb(100%,100%,100%);fill-opacity:1;" d="M 32.257812 25.367188 C 32.257812 25.734375 31.960938 26.03125 31.59375 26.03125 C 31.222656 26.03125 30.921875 25.734375 30.921875 25.367188 C 30.921875 24.996094 31.222656 24.695312 31.59375 24.695312 C 31.960938 24.695312 32.257812 24.996094 32.257812 25.367188 Z M 32.257812 25.367188 "/>
</g>
</svg>
