<?xml version="1.0" encoding="UTF-8"?>
<svg xmlns="http://www.w3.org/2000/svg" xmlns:xlink="http://www.w3.org/1999/xlink" width="35pt" height="35pt" viewBox="0 0 95 95" version="1.1">
<g id="surface1">
<path style=" stroke:none;fill-rule:nonzero;fill:rgb(100%,81.568627%,4.313725%);fill-opacity:1;" d="M 93.878906 47.5 C 93.878906 73.113281 73.113281 93.878906 47.5 93.878906 C 21.886719 93.878906 1.121094 73.113281 1.121094 47.5 C 1.121094 21.886719 21.886719 1.121094 47.5 1.121094 C 73.113281 1.121094 93.878906 21.886719 93.878906 47.5 Z M 93.878906 47.5 "/>
<path style=" stroke:none;fill-rule:nonzero;fill:rgb(100%,74.509804%,3.137255%);fill-opacity:1;" d="M 47.5 1.121094 L 47.5 93.878906 C 73.113281 93.878906 93.878906 73.113281 93.878906 47.5 C 93.878906 21.886719 73.113281 1.121094 47.5 1.121094 Z M 47.5 1.121094 "/>
<path style=" stroke:none;fill-rule:nonzero;fill:rgb(20%,21.176471%,22.745098%);fill-opacity:1;" d="M 47.5 95 C 21.308594 95 0 73.691406 0 47.5 C 0 21.308594 21.308594 0 47.5 0 C 73.691406 0 95 21.308594 95 47.5 C 95 73.691406 73.691406 95 47.5 95 Z M 47.5 2.246094 C 22.546875 2.246094 2.246094 22.546875 2.246094 47.5 C 2.246094 72.453125 22.546875 92.753906 47.5 92.753906 C 72.453125 92.753906 92.753906 72.453125 92.753906 47.5 C 92.753906 22.546875 72.453125 2.246094 47.5 2.246094 Z M 47.5 2.246094 "/>
<path style=" stroke:none;fill-rule:nonzero;fill:rgb(100%,81.568627%,4.313725%);fill-opacity:1;" d="M 83.402344 47.5 C 83.402344 67.328125 67.328125 83.402344 47.5 83.402344 C 27.671875 83.402344 11.597656 67.328125 11.597656 47.5 C 11.597656 27.671875 27.671875 11.597656 47.5 11.597656 C 67.328125 11.597656 83.402344 27.671875 83.402344 47.5 Z M 83.402344 47.5 "/>
<path style=" stroke:none;fill-rule:nonzero;fill:rgb(100%,74.509804%,3.137255%);fill-opacity:1;" d="M 22.113281 22.113281 L 72.886719 72.886719 C 86.90625 58.867188 86.90625 36.136719 72.886719 22.113281 C 58.867188 8.09375 36.136719 8.09375 22.113281 22.113281 Z M 22.113281 22.113281 "/>
<path style=" stroke:none;fill-rule:nonzero;fill:rgb(20%,21.176471%,22.745098%);fill-opacity:1;" d="M 47.5 8.816406 C 46.878906 8.816406 46.378906 8.3125 46.378906 7.691406 L 46.378906 5.058594 C 46.378906 4.4375 46.878906 3.933594 47.5 3.933594 C 48.121094 3.933594 48.621094 4.4375 48.621094 5.058594 L 48.621094 7.691406 C 48.621094 8.3125 48.121094 8.816406 47.5 8.816406 Z M 47.5 8.816406 "/>
<path style=" stroke:none;fill-rule:nonzero;fill:rgb(20%,21.176471%,22.745098%);fill-opacity:1;" d="M 47.5 91.066406 C 46.878906 91.066406 46.378906 90.5625 46.378906 89.941406 L 46.378906 87.308594 C 46.378906 86.6875 46.878906 86.183594 47.5 86.183594 C 48.121094 86.183594 48.621094 86.6875 48.621094 87.308594 L 48.621094 89.941406 C 48.621094 90.5625 48.121094 91.066406 47.5 91.066406 Z M 47.5 91.066406 "/>
<path style=" stroke:none;fill-rule:nonzero;fill:rgb(20%,21.176471%,22.745098%);fill-opacity:1;" d="M 75.648438 20.472656 C 75.359375 20.472656 75.074219 20.363281 74.855469 20.144531 C 74.414062 19.707031 74.414062 18.996094 74.855469 18.558594 L 76.71875 16.695312 C 77.15625 16.257812 77.867188 16.257812 78.304688 16.695312 C 78.742188 17.132812 78.742188 17.84375 78.304688 18.28125 L 76.441406 20.144531 C 76.222656 20.363281 75.933594 20.472656 75.648438 20.472656 Z M 75.648438 20.472656 "/>
<path style=" stroke:none;fill-rule:nonzero;fill:rgb(20%,21.176471%,22.745098%);fill-opacity:1;" d="M 17.488281 78.632812 C 17.203125 78.632812 16.914062 78.523438 16.695312 78.304688 C 16.257812 77.867188 16.257812 77.15625 16.695312 76.71875 L 18.558594 74.855469 C 18.996094 74.417969 19.707031 74.417969 20.144531 74.855469 C 20.582031 75.292969 20.582031 76.003906 20.144531 76.441406 L 18.28125 78.304688 C 18.0625 78.523438 17.777344 78.632812 17.488281 78.632812 Z M 17.488281 78.632812 "/>
<path style=" stroke:none;fill-rule:nonzero;fill:rgb(20%,21.176471%,22.745098%);fill-opacity:1;" d="M 89.941406 48.621094 L 87.308594 48.621094 C 86.6875 48.621094 86.183594 48.121094 86.183594 47.5 C 86.183594 46.878906 86.6875 46.378906 87.308594 46.378906 L 89.941406 46.378906 C 90.5625 46.378906 91.066406 46.878906 91.066406 47.5 C 91.066406 48.121094 90.5625 48.621094 89.941406 48.621094 Z M 89.941406 48.621094 "/>
<path style=" stroke:none;fill-rule:nonzero;fill:rgb(20%,21.176471%,22.745098%);fill-opacity:1;" d="M 7.691406 48.621094 L 5.058594 48.621094 C 4.4375 48.621094 3.933594 48.121094 3.933594 47.5 C 3.933594 46.878906 4.4375 46.378906 5.058594 46.378906 L 7.691406 46.378906 C 8.3125 46.378906 8.816406 46.878906 8.816406 47.5 C 8.816406 48.121094 8.3125 48.621094 7.691406 48.621094 Z M 7.691406 48.621094 "/>
<path style=" stroke:none;fill-rule:nonzero;fill:rgb(20%,21.176471%,22.745098%);fill-opacity:1;" d="M 77.511719 78.632812 C 77.222656 78.632812 76.9375 78.523438 76.71875 78.304688 L 74.855469 76.441406 C 74.414062 76.003906 74.414062 75.292969 74.855469 74.855469 C 75.292969 74.417969 76.003906 74.417969 76.441406 74.855469 L 78.304688 76.71875 C 78.742188 77.15625 78.742188 77.867188 78.304688 78.304688 C 78.085938 78.523438 77.796875 78.632812 77.511719 78.632812 Z M 77.511719 78.632812 "/>
<path style=" stroke:none;fill-rule:nonzero;fill:rgb(20%,21.176471%,22.745098%);fill-opacity:1;" d="M 19.351562 20.472656 C 19.066406 20.472656 18.777344 20.363281 18.558594 20.144531 L 16.695312 18.28125 C 16.257812 17.84375 16.257812 17.132812 16.695312 16.695312 C 17.132812 16.257812 17.84375 16.257812 18.28125 16.695312 L 20.144531 18.558594 C 20.582031 18.996094 20.582031 19.707031 20.144531 20.144531 C 19.925781 20.363281 19.640625 20.472656 19.351562 20.472656 Z M 19.351562 20.472656 "/>
<path style=" stroke:none;fill-rule:nonzero;fill:rgb(20%,21.176471%,22.745098%);fill-opacity:1;" d="M 27.597656 14.148438 C 27.210938 14.148438 26.832031 13.949219 26.625 13.589844 L 25.304688 11.304688 C 24.996094 10.769531 25.179688 10.082031 25.71875 9.773438 C 26.253906 9.460938 26.941406 9.644531 27.25 10.183594 L 28.570312 12.464844 C 28.878906 13.003906 28.695312 13.691406 28.15625 14 C 27.980469 14.101562 27.789062 14.148438 27.597656 14.148438 Z M 27.597656 14.148438 "/>
<path style=" stroke:none;fill-rule:nonzero;fill:rgb(20%,21.176471%,22.745098%);fill-opacity:1;" d="M 68.722656 85.378906 C 68.335938 85.378906 67.957031 85.175781 67.75 84.816406 L 66.433594 82.535156 C 66.121094 81.996094 66.308594 81.308594 66.84375 81 C 67.378906 80.691406 68.066406 80.875 68.378906 81.414062 L 69.695312 83.695312 C 70.003906 84.234375 69.820312 84.917969 69.28125 85.230469 C 69.105469 85.332031 68.914062 85.378906 68.722656 85.378906 Z M 68.722656 85.378906 "/>
<path style=" stroke:none;fill-rule:nonzero;fill:rgb(20%,21.176471%,22.745098%);fill-opacity:1;" d="M 57.804688 10.171875 C 57.707031 10.171875 57.609375 10.160156 57.511719 10.132812 C 56.914062 9.972656 56.558594 9.359375 56.71875 8.757812 L 57.398438 6.214844 C 57.558594 5.617188 58.175781 5.257812 58.773438 5.417969 C 59.371094 5.578125 59.726562 6.195312 59.570312 6.792969 L 58.886719 9.339844 C 58.753906 9.839844 58.300781 10.171875 57.804688 10.171875 Z M 57.804688 10.171875 "/>
<path style=" stroke:none;fill-rule:nonzero;fill:rgb(20%,21.176471%,22.745098%);fill-opacity:1;" d="M 36.515625 89.617188 C 36.421875 89.617188 36.324219 89.605469 36.226562 89.582031 C 35.628906 89.421875 35.273438 88.804688 35.433594 88.207031 L 36.113281 85.660156 C 36.273438 85.0625 36.886719 84.707031 37.488281 84.867188 C 38.085938 85.027344 38.441406 85.640625 38.28125 86.242188 L 37.601562 88.785156 C 37.464844 89.289062 37.011719 89.617188 36.515625 89.617188 Z M 36.515625 89.617188 "/>
<path style=" stroke:none;fill-rule:nonzero;fill:rgb(20%,21.176471%,22.745098%);fill-opacity:1;" d="M 81.972656 28.71875 C 81.585938 28.71875 81.210938 28.519531 81 28.15625 C 80.691406 27.621094 80.875 26.933594 81.414062 26.625 L 83.695312 25.304688 C 84.230469 24.996094 84.917969 25.179688 85.230469 25.71875 C 85.539062 26.253906 85.355469 26.941406 84.816406 27.25 L 82.535156 28.570312 C 82.359375 28.671875 82.164062 28.71875 81.972656 28.71875 Z M 81.972656 28.71875 "/>
<path style=" stroke:none;fill-rule:nonzero;fill:rgb(20%,21.176471%,22.745098%);fill-opacity:1;" d="M 10.746094 69.84375 C 10.355469 69.84375 9.980469 69.640625 9.769531 69.28125 C 9.460938 68.746094 9.644531 68.058594 10.183594 67.75 L 12.464844 66.433594 C 13 66.121094 13.6875 66.304688 14 66.84375 C 14.308594 67.378906 14.125 68.066406 13.585938 68.375 L 11.304688 69.695312 C 11.128906 69.796875 10.933594 69.84375 10.746094 69.84375 Z M 10.746094 69.84375 "/>
<path style=" stroke:none;fill-rule:nonzero;fill:rgb(20%,21.176471%,22.745098%);fill-opacity:1;" d="M 88.496094 59.609375 C 88.402344 59.609375 88.300781 59.59375 88.207031 59.570312 L 85.660156 58.886719 C 85.0625 58.726562 84.707031 58.109375 84.867188 57.511719 C 85.027344 56.914062 85.648438 56.558594 86.242188 56.71875 L 88.785156 57.402344 C 89.386719 57.5625 89.738281 58.175781 89.582031 58.773438 C 89.445312 59.277344 88.992188 59.609375 88.496094 59.609375 Z M 88.496094 59.609375 "/>
<path style=" stroke:none;fill-rule:nonzero;fill:rgb(20%,21.176471%,22.745098%);fill-opacity:1;" d="M 9.050781 38.320312 C 8.953125 38.320312 8.855469 38.308594 8.757812 38.28125 L 6.214844 37.597656 C 5.613281 37.4375 5.261719 36.824219 5.417969 36.222656 C 5.582031 35.625 6.199219 35.269531 6.792969 35.429688 L 9.339844 36.113281 C 9.9375 36.273438 10.292969 36.886719 10.132812 37.488281 C 10 37.988281 9.546875 38.320312 9.050781 38.320312 Z M 9.050781 38.320312 "/>
<path style=" stroke:none;fill-rule:nonzero;fill:rgb(20%,21.176471%,22.745098%);fill-opacity:1;" d="M 13.027344 28.71875 C 12.835938 28.71875 12.640625 28.671875 12.464844 28.566406 L 10.183594 27.25 C 9.644531 26.941406 9.460938 26.253906 9.769531 25.714844 C 10.082031 25.179688 10.769531 24.996094 11.304688 25.304688 L 13.585938 26.625 C 14.125 26.933594 14.308594 27.621094 14 28.15625 C 13.792969 28.519531 13.414062 28.71875 13.027344 28.71875 Z M 13.027344 28.71875 "/>
<path style=" stroke:none;fill-rule:nonzero;fill:rgb(20%,21.176471%,22.745098%);fill-opacity:1;" d="M 84.253906 69.84375 C 84.066406 69.84375 83.871094 69.796875 83.695312 69.691406 L 81.414062 68.375 C 80.875 68.0625 80.691406 67.378906 81.003906 66.839844 C 81.3125 66.304688 82 66.121094 82.535156 66.429688 L 84.816406 67.75 C 85.355469 68.058594 85.539062 68.746094 85.230469 69.28125 C 85.019531 69.644531 84.644531 69.84375 84.253906 69.84375 Z M 84.253906 69.84375 "/>
<path style=" stroke:none;fill-rule:nonzero;fill:rgb(20%,21.176471%,22.745098%);fill-opacity:1;" d="M 37.195312 10.171875 C 36.703125 10.171875 36.246094 9.839844 36.113281 9.339844 L 35.429688 6.796875 C 35.269531 6.195312 35.625 5.582031 36.226562 5.421875 C 36.820312 5.261719 37.4375 5.617188 37.601562 6.214844 L 38.28125 8.757812 C 38.441406 9.359375 38.085938 9.972656 37.488281 10.132812 C 37.390625 10.160156 37.292969 10.171875 37.195312 10.171875 Z M 37.195312 10.171875 "/>
<path style=" stroke:none;fill-rule:nonzero;fill:rgb(20%,21.176471%,22.745098%);fill-opacity:1;" d="M 58.484375 89.617188 C 57.988281 89.617188 57.535156 89.289062 57.402344 88.785156 L 56.71875 86.242188 C 56.558594 85.640625 56.914062 85.027344 57.511719 84.867188 C 58.113281 84.707031 58.726562 85.0625 58.890625 85.660156 L 59.570312 88.207031 C 59.730469 88.804688 59.375 89.421875 58.777344 89.582031 C 58.679688 89.605469 58.582031 89.617188 58.484375 89.617188 Z M 58.484375 89.617188 "/>
<path style=" stroke:none;fill-rule:nonzero;fill:rgb(20%,21.176471%,22.745098%);fill-opacity:1;" d="M 67.402344 14.148438 C 67.210938 14.148438 67.019531 14.101562 66.84375 13.996094 C 66.304688 13.6875 66.121094 13 66.429688 12.464844 L 67.75 10.183594 C 68.058594 9.644531 68.746094 9.460938 69.28125 9.773438 C 69.820312 10.082031 70.003906 10.769531 69.695312 11.304688 L 68.375 13.585938 C 68.167969 13.949219 67.789062 14.148438 67.402344 14.148438 Z M 67.402344 14.148438 "/>
<path style=" stroke:none;fill-rule:nonzero;fill:rgb(20%,21.176471%,22.745098%);fill-opacity:1;" d="M 26.277344 85.378906 C 26.085938 85.378906 25.894531 85.332031 25.71875 85.226562 C 25.179688 84.917969 24.996094 84.230469 25.304688 83.695312 L 26.625 81.414062 C 26.933594 80.875 27.621094 80.691406 28.15625 81.003906 C 28.695312 81.3125 28.878906 82 28.570312 82.535156 L 27.25 84.816406 C 27.042969 85.175781 26.664062 85.378906 26.277344 85.378906 Z M 26.277344 85.378906 "/>
<path style=" stroke:none;fill-rule:nonzero;fill:rgb(20%,21.176471%,22.745098%);fill-opacity:1;" d="M 85.949219 38.320312 C 85.453125 38.320312 85 37.988281 84.867188 37.488281 C 84.707031 36.886719 85.0625 36.273438 85.660156 36.113281 L 88.207031 35.429688 C 88.804688 35.269531 89.417969 35.625 89.582031 36.226562 C 89.742188 36.824219 89.386719 37.4375 88.785156 37.597656 L 86.242188 38.28125 C 86.144531 38.308594 86.046875 38.320312 85.949219 38.320312 Z M 85.949219 38.320312 "/>
<path style=" stroke:none;fill-rule:nonzero;fill:rgb(20%,21.176471%,22.745098%);fill-opacity:1;" d="M 6.503906 59.609375 C 6.007812 59.609375 5.554688 59.277344 5.417969 58.777344 C 5.257812 58.179688 5.613281 57.5625 6.214844 57.402344 L 8.757812 56.71875 C 9.355469 56.558594 9.972656 56.914062 10.132812 57.511719 C 10.292969 58.109375 9.9375 58.726562 9.339844 58.886719 L 6.792969 59.570312 C 6.699219 59.597656 6.597656 59.609375 6.503906 59.609375 Z M 6.503906 59.609375 "/>
<path style=" stroke:none;fill-rule:nonzero;fill:rgb(20%,21.176471%,22.745098%);fill-opacity:1;" d="M 62.527344 54.191406 C 61.90625 54.191406 61.402344 53.6875 61.402344 53.070312 C 61.402344 52.882812 61.253906 52.730469 61.066406 52.730469 C 60.878906 52.730469 60.730469 52.882812 60.730469 53.070312 C 60.730469 53.6875 60.226562 54.191406 59.605469 54.191406 C 58.988281 54.191406 58.484375 53.6875 58.484375 53.070312 C 58.484375 51.644531 59.640625 50.484375 61.066406 50.484375 C 62.492188 50.484375 63.648438 51.644531 63.648438 53.070312 C 63.648438 53.6875 63.144531 54.191406 62.527344 54.191406 Z M 62.527344 54.191406 "/>
<path style=" stroke:none;fill-rule:nonzero;fill:rgb(87.843137%,25.098039%,21.960784%);fill-opacity:1;" d="M 63.300781 61.128906 C 63.300781 63.296875 61.546875 65.050781 59.382812 65.050781 C 57.214844 65.050781 55.460938 63.296875 55.460938 61.128906 C 55.460938 58.964844 57.214844 57.210938 59.382812 57.210938 C 61.546875 57.210938 63.300781 58.964844 63.300781 61.128906 Z M 63.300781 61.128906 "/>
<path style=" stroke:none;fill-rule:nonzero;fill:rgb(100%,38.039216%,33.333333%);fill-opacity:1;" d="M 59.382812 57.210938 C 61.546875 57.210938 63.300781 58.964844 63.300781 61.128906 C 63.300781 63.296875 61.546875 65.050781 59.382812 65.050781 "/>
<path style=" stroke:none;fill-rule:nonzero;fill:rgb(20%,21.176471%,22.745098%);fill-opacity:1;" d="M 59.382812 66.175781 C 56.601562 66.175781 54.339844 63.914062 54.339844 61.132812 C 54.339844 58.351562 56.601562 56.089844 59.382812 56.089844 C 62.160156 56.089844 64.421875 58.351562 64.421875 61.132812 C 64.421875 63.910156 62.160156 66.175781 59.382812 66.175781 Z M 59.382812 58.335938 C 57.839844 58.335938 56.585938 59.589844 56.585938 61.128906 C 56.585938 62.671875 57.839844 63.929688 59.382812 63.929688 C 60.921875 63.929688 62.179688 62.671875 62.179688 61.128906 C 62.179688 59.589844 60.921875 58.335938 59.382812 58.335938 Z M 59.382812 58.335938 "/>
<path style=" stroke:none;fill-rule:nonzero;fill:rgb(20%,21.176471%,22.745098%);fill-opacity:1;" d="M 73.679688 21.320312 C 59.246094 6.882812 35.757812 6.882812 21.320312 21.320312 C 7.65625 34.988281 6.933594 56.761719 19.144531 71.292969 C 19.179688 71.339844 19.21875 71.386719 19.261719 71.429688 C 19.914062 72.199219 20.59375 72.953125 21.320312 73.679688 C 28.539062 80.898438 38.019531 84.507812 47.5 84.507812 C 56.980469 84.507812 66.460938 80.898438 73.679688 73.679688 C 88.117188 59.246094 88.117188 35.753906 73.679688 21.320312 Z M 64.292969 77.949219 C 51.078125 85.230469 34.097656 83.285156 22.90625 72.09375 C 22.417969 71.605469 21.953125 71.105469 21.5 70.59375 C 25.351562 65.636719 28.195312 61.214844 30.710938 57.292969 C 33.714844 52.609375 36.085938 48.90625 39.066406 45.992188 C 39.328125 45.734375 39.449219 45.363281 39.386719 45.003906 C 39.328125 44.640625 39.09375 44.332031 38.761719 44.175781 C 36.898438 43.292969 35.1875 42.15625 33.644531 40.808594 C 33.640625 40.808594 33.636719 40.800781 33.632812 40.796875 C 33.277344 40.488281 32.941406 40.183594 32.613281 39.863281 C 32.570312 39.824219 32.523438 39.785156 32.484375 39.746094 C 32.097656 39.359375 31.730469 38.957031 31.375 38.546875 C 31.277344 38.433594 31.1875 38.316406 31.089844 38.199219 C 30.832031 37.890625 30.582031 37.574219 30.34375 37.253906 C 30.246094 37.125 30.152344 36.992188 30.0625 36.863281 C 29.824219 36.527344 29.59375 36.1875 29.375 35.84375 C 29.304688 35.730469 29.234375 35.617188 29.164062 35.503906 C 28.507812 34.421875 27.945312 33.285156 27.476562 32.105469 L 30.757812 28.828125 C 33.601562 29.957031 36.210938 31.648438 38.394531 33.832031 C 40.507812 35.945312 42.160156 38.4375 43.308594 41.246094 C 43.425781 41.53125 43.65625 41.757812 43.945312 41.871094 C 44.234375 41.980469 44.554688 41.96875 44.832031 41.835938 C 46.832031 40.878906 48.941406 40.746094 50.925781 40.746094 C 56.289062 40.746094 65.800781 45.023438 69.722656 53.054688 C 73.238281 60.265625 71.402344 68.808594 64.410156 77.761719 C 64.367188 77.820312 64.328125 77.882812 64.292969 77.949219 Z M 35.449219 44.910156 C 35.769531 45.109375 36.089844 45.3125 36.421875 45.496094 C 36.207031 45.726562 35.996094 45.972656 35.785156 46.214844 C 35.6875 45.777344 35.578125 45.34375 35.449219 44.910156 Z M 33.738281 47.359375 C 30.179688 46.691406 26.875 44.957031 24.304688 42.390625 C 22.855469 40.9375 21.679688 39.246094 20.804688 37.410156 L 23.792969 34.421875 C 24.964844 34.984375 26.085938 35.667969 27.121094 36.484375 C 27.191406 36.601562 27.273438 36.714844 27.34375 36.832031 C 27.484375 37.058594 27.625 37.28125 27.773438 37.503906 C 27.871094 37.652344 27.972656 37.804688 28.074219 37.949219 C 28.3125 38.292969 28.558594 38.632812 28.816406 38.964844 C 28.878906 39.050781 28.949219 39.128906 29.015625 39.210938 C 29.238281 39.492188 29.464844 39.769531 29.699219 40.039062 C 29.789062 40.140625 29.878906 40.242188 29.964844 40.34375 C 30.265625 40.679688 30.574219 41.007812 30.890625 41.328125 C 30.894531 41.328125 30.894531 41.328125 30.894531 41.328125 C 30.894531 41.332031 30.894531 41.332031 30.894531 41.332031 C 31.171875 41.609375 31.453125 41.863281 31.738281 42.117188 C 31.828125 42.199219 31.917969 42.289062 32.007812 42.371094 C 32.835938 43.960938 33.414062 45.632812 33.738281 47.359375 Z M 72.09375 72.09375 C 71.21875 72.96875 70.304688 73.785156 69.363281 74.546875 C 74.464844 66.097656 74.332031 59.316406 72.722656 54.476562 C 73.800781 53.570312 74.09375 51.988281 73.339844 50.746094 C 72.667969 49.644531 71.378906 49.160156 70.1875 49.441406 C 65.507812 42.621094 57.003906 38.5 50.925781 38.5 C 49.011719 38.5 46.980469 38.613281 44.9375 39.359375 C 43.707031 36.691406 42.046875 34.304688 39.984375 32.242188 C 37.410156 29.667969 34.296875 27.707031 30.90625 26.472656 C 30.894531 26.464844 30.882812 26.457031 30.867188 26.453125 C 30.789062 26.421875 30.707031 26.402344 30.628906 26.375 C 30.292969 26.253906 29.953125 26.144531 29.609375 26.042969 C 29.515625 26.011719 29.421875 25.984375 29.328125 25.953125 C 28.894531 25.828125 28.453125 25.710938 28.007812 25.609375 C 27.941406 25.59375 27.875 25.582031 27.808594 25.566406 C 27.429688 25.484375 27.050781 25.410156 26.667969 25.34375 C 26.554688 25.320312 26.4375 25.300781 26.324219 25.285156 C 25.882812 25.214844 25.4375 25.148438 24.988281 25.101562 C 24.652344 25.066406 24.316406 25.1875 24.078125 25.425781 C 23.839844 25.664062 23.722656 26 23.753906 26.332031 C 23.753906 26.335938 23.753906 26.335938 23.753906 26.335938 C 23.757812 26.34375 23.757812 26.347656 23.757812 26.351562 C 23.8125 26.867188 23.882812 27.382812 23.96875 27.894531 C 24 28.058594 24.039062 28.222656 24.070312 28.386719 C 24.136719 28.742188 24.203125 29.09375 24.285156 29.441406 C 24.328125 29.621094 24.378906 29.796875 24.425781 29.972656 C 24.511719 30.3125 24.601562 30.652344 24.703125 30.988281 C 24.75 31.140625 24.804688 31.296875 24.855469 31.449219 C 24.9375 31.707031 25.015625 31.960938 25.105469 32.210938 C 25.117188 32.246094 25.136719 32.273438 25.152344 32.304688 C 25.195312 32.417969 25.226562 32.539062 25.273438 32.648438 C 24.859375 32.4375 24.441406 32.246094 24.015625 32.0625 C 24.007812 32.058594 24 32.050781 23.992188 32.046875 C 23.964844 32.035156 23.933594 32.027344 23.90625 32.015625 C 23.46875 31.828125 23.023438 31.65625 22.570312 31.5 C 22.5625 31.496094 22.550781 31.492188 22.539062 31.488281 C 22.09375 31.335938 21.644531 31.203125 21.1875 31.082031 C 21.148438 31.070312 21.105469 31.058594 21.0625 31.046875 C 20.625 30.933594 20.183594 30.835938 19.734375 30.753906 C 19.652344 30.738281 19.566406 30.722656 19.480469 30.710938 C 19.035156 30.632812 18.585938 30.5625 18.128906 30.515625 C 17.796875 30.480469 17.460938 30.601562 17.222656 30.839844 C 16.984375 31.078125 16.863281 31.410156 16.898438 31.746094 C 16.898438 31.75 16.898438 31.753906 16.898438 31.757812 C 16.953125 32.285156 17.035156 32.808594 17.132812 33.332031 C 17.179688 33.585938 17.242188 33.835938 17.296875 34.089844 C 17.355469 34.34375 17.410156 34.601562 17.480469 34.855469 C 17.566406 35.183594 17.667969 35.503906 17.773438 35.824219 C 17.828125 35.996094 17.878906 36.167969 17.941406 36.335938 C 18.0625 36.683594 18.195312 37.027344 18.335938 37.367188 C 18.367188 37.445312 18.394531 37.527344 18.425781 37.605469 C 18.4375 37.625 18.453125 37.644531 18.464844 37.667969 C 19.472656 40.003906 20.902344 42.15625 22.71875 43.972656 C 25.570312 46.828125 29.234375 48.761719 33.179688 49.53125 C 31.742188 51.527344 30.332031 53.71875 28.816406 56.078125 C 26.398438 59.851562 23.667969 64.101562 20.03125 68.820312 C 9.4375 55.1875 10.386719 35.425781 22.90625 22.90625 C 29.6875 16.125 38.59375 12.734375 47.5 12.734375 C 56.40625 12.734375 65.3125 16.125 72.09375 22.902344 C 85.652344 36.46875 85.652344 58.53125 72.09375 72.09375 Z M 72.09375 72.09375 "/>
<path style=" stroke:none;fill-rule:nonzero;fill:rgb(20%,21.176471%,22.745098%);fill-opacity:1;" d="M 33.628906 67.519531 C 33.214844 67.519531 32.820312 67.292969 32.625 66.902344 C 32.535156 66.730469 30.449219 62.722656 26.46875 63.863281 C 25.875 64.03125 25.253906 63.6875 25.082031 63.089844 C 24.914062 62.496094 25.257812 61.875 25.855469 61.703125 C 30.480469 60.382812 33.617188 63.867188 34.632812 65.898438 C 34.90625 66.453125 34.683594 67.125 34.128906 67.402344 C 33.96875 67.484375 33.796875 67.519531 33.628906 67.519531 Z M 33.628906 67.519531 "/>
<path style=" stroke:none;fill-rule:nonzero;fill:rgb(20%,21.176471%,22.745098%);fill-opacity:1;" d="M 30.671875 71.777344 C 30.261719 71.777344 29.863281 71.550781 29.667969 71.160156 C 29.578125 70.984375 27.484375 66.984375 23.511719 68.117188 C 22.917969 68.285156 22.296875 67.941406 22.125 67.347656 C 21.953125 66.75 22.300781 66.128906 22.894531 65.957031 C 27.527344 64.636719 30.660156 68.125 31.671875 70.152344 C 31.949219 70.707031 31.726562 71.382812 31.171875 71.65625 C 31.011719 71.738281 30.839844 71.777344 30.671875 71.777344 Z M 30.671875 71.777344 "/>
<path style=" stroke:none;fill-rule:nonzero;fill:rgb(20%,21.176471%,22.745098%);fill-opacity:1;" d="M 61.855469 29.1875 C 61.738281 29.1875 61.613281 29.167969 61.496094 29.128906 C 60.910156 28.929688 60.59375 28.289062 60.792969 27.703125 L 60.976562 27.171875 C 61.175781 26.582031 61.808594 26.269531 62.398438 26.46875 C 62.984375 26.667969 63.300781 27.308594 63.101562 27.894531 L 62.917969 28.425781 C 62.761719 28.894531 62.324219 29.1875 61.855469 29.1875 Z M 61.855469 29.1875 "/>
<path style=" stroke:none;fill-rule:nonzero;fill:rgb(20%,21.176471%,22.745098%);fill-opacity:1;" d="M 59.132812 37.171875 C 59.015625 37.171875 58.890625 37.152344 58.769531 37.109375 C 58.183594 36.910156 57.871094 36.269531 58.070312 35.683594 L 59.136719 32.558594 C 59.339844 31.96875 59.976562 31.652344 60.5625 31.855469 C 61.148438 32.058594 61.464844 32.695312 61.261719 33.28125 L 60.195312 36.410156 C 60.035156 36.875 59.601562 37.171875 59.132812 37.171875 Z M 59.132812 37.171875 "/>
<path style=" stroke:none;fill-rule:nonzero;fill:rgb(20%,21.176471%,22.745098%);fill-opacity:1;" d="M 46.191406 27.042969 C 45.777344 27.042969 45.382812 26.8125 45.1875 26.417969 L 44.933594 25.910156 C 44.660156 25.355469 44.886719 24.683594 45.441406 24.40625 C 45.996094 24.132812 46.671875 24.359375 46.945312 24.914062 L 47.199219 25.421875 C 47.472656 25.976562 47.246094 26.652344 46.691406 26.925781 C 46.53125 27.003906 46.359375 27.042969 46.191406 27.042969 Z M 46.191406 27.042969 "/>
<path style=" stroke:none;fill-rule:nonzero;fill:rgb(20%,21.176471%,22.745098%);fill-opacity:1;" d="M 49.910156 34.613281 C 49.496094 34.613281 49.097656 34.382812 48.902344 33.984375 L 47.445312 31.011719 C 47.171875 30.457031 47.398438 29.785156 47.957031 29.511719 C 48.515625 29.238281 49.1875 29.46875 49.460938 30.023438 L 50.917969 32.996094 C 51.191406 33.550781 50.960938 34.226562 50.40625 34.496094 C 50.246094 34.574219 50.078125 34.613281 49.910156 34.613281 Z M 49.910156 34.613281 "/>
<path style=" stroke:none;fill-rule:nonzero;fill:rgb(20%,21.176471%,22.745098%);fill-opacity:1;" d="M 75.566406 37.066406 C 75.152344 37.066406 74.753906 36.835938 74.558594 36.4375 C 74.285156 35.878906 74.515625 35.207031 75.070312 34.933594 L 75.578125 34.6875 C 76.136719 34.414062 76.808594 34.644531 77.082031 35.199219 C 77.355469 35.757812 77.125 36.429688 76.566406 36.703125 L 76.058594 36.949219 C 75.902344 37.027344 75.734375 37.066406 75.566406 37.066406 Z M 75.566406 37.066406 "/>
<path style=" stroke:none;fill-rule:nonzero;fill:rgb(20%,21.176471%,22.745098%);fill-opacity:1;" d="M 68 40.78125 C 67.585938 40.78125 67.1875 40.550781 66.992188 40.15625 C 66.71875 39.597656 66.949219 38.925781 67.503906 38.652344 L 70.46875 37.195312 C 71.027344 36.921875 71.699219 37.148438 71.972656 37.707031 C 72.246094 38.261719 72.015625 38.9375 71.460938 39.210938 L 68.496094 40.667969 C 68.335938 40.746094 68.167969 40.78125 68 40.78125 Z M 68 40.78125 "/>
</g>
</svg>
