<?xml version="1.0" encoding="utf-8"?>
<svg width="32" height="32" xmlns="http://www.w3.org/2000/svg">
  <g transform="matrix(0.044407, 0, 0, -0.044456, 53.890102, 111.700325)" fill="#000000" stroke="none">
    <path d="M685 1560 c-443 -116 -671 -600 -476 -1011 119 -250 372 -409 651 -409 401 0 720 319 720 720 0 334 -222 617 -549 701 -97 25 -250 25 -346 -1z m214 -570 c73 -21 112 -93 91 -169 -34 -129 -226 -128 -260 1 -20 73 19 147 86 168 39 11 44 11 83 0z m-299 -150 c0 -40 41 -128 77 -163 41 -42 125 -77 183 -77 58 0 142 35 183 77 36 35 77 123 77 163 0 19 8 20 170 20 l170 0 0 -27 c0 -16 -7 -59 -15 -98 -57 -270 -309 -475 -585 -475 -218 0 -439 137 -534 330 -35 72 -65 184 -66 243 l0 27 170 0 c162 0 170 -1 170 -20z" style="fill: rgb(255, 80, 95);"/>
  </g>
</svg>