<?xml version="1.0" encoding="UTF-8"?>
<svg xmlns="http://www.w3.org/2000/svg" xmlns:xlink="http://www.w3.org/1999/xlink" width="24pt" height="24pt" viewBox="0 0 8 8" version="1.1">
<g id="surface1">
<path style=" stroke:none;fill-rule:nonzero;fill:rgb(100%,10.196078%,10.196078%);fill-opacity:1;" d="M 7.890625 3.992188 C 7.890625 6.144531 6.144531 7.890625 3.992188 7.890625 C 1.839844 7.890625 0.09375 6.144531 0.09375 3.992188 C 0.09375 1.839844 1.839844 0.09375 3.992188 0.09375 C 6.144531 0.09375 7.890625 1.839844 7.890625 3.992188 Z M 7.890625 3.992188 "/>
<path style=" stroke:none;fill-rule:nonzero;fill:rgb(83.921569%,3.529412%,3.529412%);fill-opacity:1;" d="M 7.890625 3.992188 C 7.890625 2.34375 6.144531 1.007812 3.992188 1.007812 C 1.839844 1.007812 0.09375 2.34375 0.09375 3.992188 C 0.09375 5.640625 1.839844 6.976562 3.992188 6.976562 C 6.144531 6.976562 7.890625 5.640625 7.890625 3.992188 Z M 7.890625 3.992188 "/>
<path style=" stroke:none;fill-rule:nonzero;fill:rgb(100%,100%,100%);fill-opacity:1;" d="M 0.09375 3.992188 C 0.09375 6.144531 1.839844 7.890625 3.992188 7.890625 C 6.144531 7.890625 7.890625 6.144531 7.890625 3.992188 Z M 0.09375 3.992188 "/>
<path style=" stroke:none;fill-rule:nonzero;fill:rgb(84.705882%,89.803922%,91.764706%);fill-opacity:1;" d="M 3.992188 6.976562 C 6.144531 6.976562 7.890625 5.640625 7.890625 3.992188 L 0.09375 3.992188 C 0.09375 5.640625 1.839844 6.976562 3.992188 6.976562 Z M 3.992188 6.976562 "/>
<path style=" stroke:none;fill-rule:nonzero;fill:rgb(20%,21.176471%,22.745098%);fill-opacity:1;" d="M 3.992188 0 C 1.789062 0 0 1.789062 0 3.992188 C 0 6.191406 1.789062 7.984375 3.992188 7.984375 C 6.191406 7.984375 7.984375 6.191406 7.984375 3.992188 C 7.984375 1.789062 6.191406 0 3.992188 0 Z M 3.992188 0.1875 C 6.054688 0.1875 7.742188 1.84375 7.789062 3.898438 L 0.191406 3.898438 C 0.242188 1.84375 1.925781 0.1875 3.992188 0.1875 Z M 3.992188 7.792969 C 1.925781 7.792969 0.242188 6.140625 0.191406 4.085938 L 7.789062 4.085938 C 7.742188 6.140625 6.054688 7.792969 3.992188 7.792969 Z M 3.992188 7.792969 "/>
<path style=" stroke:none;fill-rule:nonzero;fill:rgb(65.490196%,73.333333%,75.686275%);fill-opacity:1;" d="M 5.050781 4.351562 C 5.050781 4.9375 4.578125 5.410156 3.992188 5.410156 C 3.40625 5.410156 2.933594 4.9375 2.933594 4.351562 C 2.933594 3.765625 3.40625 3.292969 3.992188 3.292969 C 4.578125 3.292969 5.050781 3.765625 5.050781 4.351562 Z M 5.050781 4.351562 "/>
<path style=" stroke:none;fill-rule:nonzero;fill:rgb(100%,100%,100%);fill-opacity:1;" d="M 5.050781 3.992188 C 5.050781 4.578125 4.578125 5.050781 3.992188 5.050781 C 3.40625 5.050781 2.933594 4.578125 2.933594 3.992188 C 2.933594 3.40625 3.40625 2.933594 3.992188 2.933594 C 4.578125 2.933594 5.050781 3.40625 5.050781 3.992188 Z M 5.050781 3.992188 "/>
<path style=" stroke:none;fill-rule:nonzero;fill:rgb(84.705882%,89.803922%,91.764706%);fill-opacity:1;" d="M 3.242188 4.742188 C 2.828125 4.328125 2.828125 3.65625 3.242188 3.242188 C 3.65625 2.828125 4.328125 2.828125 4.742188 3.242188 "/>
<path style=" stroke:none;fill-rule:nonzero;fill:rgb(20%,21.176471%,22.745098%);fill-opacity:1;" d="M 3.992188 5.144531 C 3.683594 5.144531 3.394531 5.023438 3.175781 4.808594 C 2.726562 4.359375 2.726562 3.625 3.175781 3.175781 C 3.625 2.726562 4.359375 2.726562 4.808594 3.175781 C 5.023438 3.394531 5.144531 3.683594 5.144531 3.992188 C 5.144531 4.300781 5.023438 4.589844 4.808594 4.808594 C 4.589844 5.023438 4.300781 5.144531 3.992188 5.144531 Z M 3.992188 3.027344 C 3.742188 3.027344 3.5 3.121094 3.308594 3.308594 C 2.933594 3.6875 2.933594 4.296875 3.308594 4.671875 C 3.492188 4.855469 3.734375 4.957031 3.992188 4.957031 C 4.25 4.957031 4.492188 4.855469 4.671875 4.671875 C 4.855469 4.492188 4.957031 4.25 4.957031 3.992188 C 4.957031 3.734375 4.855469 3.492188 4.671875 3.308594 C 4.484375 3.121094 4.238281 3.027344 3.992188 3.027344 Z M 3.992188 3.027344 "/>
<path style=" stroke:none;fill-rule:nonzero;fill:rgb(100%,100%,100%);fill-opacity:1;" d="M 4.351562 4.351562 C 4.152344 4.550781 3.828125 4.550781 3.632812 4.351562 C 3.433594 4.152344 3.433594 3.828125 3.632812 3.632812 C 3.828125 3.433594 4.152344 3.433594 4.351562 3.632812 C 4.550781 3.828125 4.550781 4.152344 4.351562 4.351562 Z M 4.351562 4.351562 "/>
<path style=" stroke:none;fill-rule:nonzero;fill:rgb(84.705882%,89.803922%,91.764706%);fill-opacity:1;" d="M 3.632812 3.632812 C 3.828125 3.433594 4.152344 3.433594 4.351562 3.632812 C 4.550781 3.828125 4.550781 4.152344 4.351562 4.351562 "/>
<path style=" stroke:none;fill-rule:nonzero;fill:rgb(20%,21.176471%,22.745098%);fill-opacity:1;" d="M 3.992188 4.59375 C 3.835938 4.59375 3.679688 4.539062 3.5625 4.417969 C 3.328125 4.183594 3.328125 3.800781 3.5625 3.5625 C 3.679688 3.449219 3.828125 3.386719 3.992188 3.386719 C 4.152344 3.386719 4.304688 3.449219 4.417969 3.5625 C 4.65625 3.800781 4.65625 4.183594 4.417969 4.417969 C 4.300781 4.539062 4.148438 4.59375 3.992188 4.59375 Z M 3.992188 3.578125 C 3.882812 3.578125 3.777344 3.621094 3.699219 3.699219 C 3.539062 3.859375 3.539062 4.125 3.699219 4.285156 C 3.859375 4.445312 4.125 4.445312 4.285156 4.285156 C 4.445312 4.125 4.445312 3.859375 4.285156 3.699219 C 4.207031 3.621094 4.101562 3.578125 3.992188 3.578125 Z M 3.992188 3.578125 "/>
</g>
</svg>
