<?xml version="1.0" encoding="UTF-8"?>
<svg xmlns="http://www.w3.org/2000/svg" xmlns:xlink="http://www.w3.org/1999/xlink" width="48pt" height="48pt" viewBox="0 0 96 96" version="1.1">
<g id="surface1">
<path style=" stroke:none;fill-rule:nonzero;fill:rgb(5.098039%,36.078431%,61.960784%);fill-opacity:1;" d="M 8.710938 11.492188 C 3.40625 18.777344 2.296875 28.714844 6.710938 37.269531 C 11.128906 45.828125 19.871094 50.675781 28.886719 50.574219 C 34.1875 43.285156 35.300781 33.351562 30.882812 24.796875 C 26.464844 16.238281 17.726562 11.390625 8.710938 11.492188 Z M 8.710938 11.492188 "/>
<path style=" stroke:none;fill-rule:nonzero;fill:rgb(0%,60.784314%,90.980392%);fill-opacity:1;" d="M 28.886719 50.574219 C 34.1875 43.285156 35.300781 33.351562 30.882812 24.792969 C 26.464844 16.238281 17.726562 11.390625 8.710938 11.492188 "/>
<path style=" stroke:none;fill-rule:nonzero;fill:rgb(20%,21.176471%,22.745098%);fill-opacity:1;" d="M 28.601562 51.703125 C 18.902344 51.703125 10.148438 46.390625 5.710938 37.785156 C 1.222656 29.09375 2.019531 18.761719 7.796875 10.828125 C 8.007812 10.539062 8.339844 10.367188 8.699219 10.363281 C 8.796875 10.363281 8.898438 10.363281 8.996094 10.363281 C 18.695312 10.363281 27.445312 15.671875 31.886719 24.277344 C 36.375 32.972656 35.574219 43.300781 29.796875 51.238281 C 29.589844 51.527344 29.253906 51.699219 28.898438 51.703125 C 28.800781 51.703125 28.699219 51.703125 28.601562 51.703125 Z M 9.292969 12.621094 C 4.324219 19.796875 3.707031 28.988281 7.714844 36.75 C 11.71875 44.511719 19.570312 49.335938 28.300781 49.445312 C 33.273438 42.269531 33.886719 33.074219 29.878906 25.3125 C 25.875 17.550781 18.023438 12.730469 9.292969 12.621094 Z M 9.292969 12.621094 "/>
<path style=" stroke:none;fill-rule:nonzero;fill:rgb(5.098039%,36.078431%,61.960784%);fill-opacity:1;" d="M 87.289062 11.492188 C 92.59375 18.777344 93.703125 28.714844 89.289062 37.269531 C 84.871094 45.828125 76.128906 50.675781 67.113281 50.574219 C 61.8125 43.285156 60.699219 33.351562 65.117188 24.796875 C 69.535156 16.238281 78.273438 11.390625 87.289062 11.492188 Z M 87.289062 11.492188 "/>
<path style=" stroke:none;fill-rule:nonzero;fill:rgb(0%,60.784314%,90.980392%);fill-opacity:1;" d="M 67.113281 50.574219 C 61.8125 43.285156 60.699219 33.351562 65.117188 24.792969 C 69.535156 16.238281 78.273438 11.390625 87.289062 11.492188 "/>
<path style=" stroke:none;fill-rule:nonzero;fill:rgb(20%,21.176471%,22.745098%);fill-opacity:1;" d="M 67.398438 51.703125 C 67.296875 51.703125 67.203125 51.703125 67.101562 51.703125 C 66.746094 51.699219 66.410156 51.527344 66.203125 51.238281 C 60.425781 43.300781 59.625 32.96875 64.113281 24.277344 C 68.554688 15.671875 77.308594 10.363281 87.003906 10.363281 C 87.101562 10.363281 87.203125 10.363281 87.300781 10.363281 C 87.660156 10.367188 87.992188 10.539062 88.203125 10.828125 C 93.980469 18.761719 94.78125 29.09375 90.289062 37.785156 C 85.851562 46.390625 77.097656 51.703125 67.398438 51.703125 Z M 86.707031 12.621094 C 77.976562 12.730469 70.125 17.550781 66.121094 25.3125 C 62.113281 33.074219 62.726562 42.265625 67.699219 49.445312 C 76.429688 49.335938 84.277344 44.511719 88.285156 36.75 C 92.292969 28.988281 91.675781 19.796875 86.707031 12.621094 Z M 86.707031 12.621094 "/>
<path style=" stroke:none;fill-rule:nonzero;fill:rgb(0%,60.784314%,90.980392%);fill-opacity:1;" d="M 94.871094 51.816406 C 94.871094 71.511719 73.886719 87.480469 48 87.480469 C 22.113281 87.480469 1.128906 71.511719 1.128906 51.816406 C 1.128906 32.121094 22.113281 8.519531 48 8.519531 C 73.886719 8.519531 94.871094 32.121094 94.871094 51.816406 Z M 94.871094 51.816406 "/>
<path style=" stroke:none;fill-rule:nonzero;fill:rgb(5.098039%,36.078431%,61.960784%);fill-opacity:1;" d="M 94.871094 51.816406 C 94.871094 71.511719 73.886719 87.480469 48 87.480469 C 22.113281 87.480469 1.128906 71.511719 1.128906 51.816406 C 1.128906 32.121094 22.113281 18.550781 48 18.550781 C 73.886719 18.550781 94.871094 32.121094 94.871094 51.816406 Z M 94.871094 51.816406 "/>
<path style=" stroke:none;fill-rule:nonzero;fill:rgb(2.352941%,23.137255%,40%);fill-opacity:1;" d="M 94.871094 51.816406 C 94.871094 71.511719 73.886719 87.480469 48 87.480469 C 22.113281 87.480469 1.128906 71.511719 1.128906 51.816406 C 1.128906 32.121094 7.09375 69.289062 48 69.289062 C 88.90625 69.289062 94.871094 32.121094 94.871094 51.816406 Z M 94.871094 51.816406 "/>
<path style=" stroke:none;fill-rule:nonzero;fill:rgb(95.686275%,84.313725%,72.156863%);fill-opacity:1;" d="M 61.628906 29.007812 L 48 42.640625 L 34.371094 29.007812 C 17.082031 31.683594 4.601562 39.847656 4.601562 54.460938 C 4.601562 72.695312 24.03125 87.480469 48 87.480469 C 71.96875 87.480469 91.394531 72.695312 91.394531 54.460938 C 91.398438 39.847656 78.917969 31.683594 61.628906 29.007812 Z M 61.628906 29.007812 "/>
<path style=" stroke:none;fill-rule:nonzero;fill:rgb(98.823529%,90.196078%,78.431373%);fill-opacity:1;" d="M 78.417969 34.265625 C 73.734375 31.734375 68.011719 29.996094 61.628906 29.007812 L 48 42.640625 L 34.371094 29.007812 C 27.988281 29.996094 22.265625 31.734375 17.578125 34.265625 C 25.410156 40.125 36.148438 43.742188 48 43.742188 C 59.851562 43.742188 70.589844 40.125 78.417969 34.265625 Z M 78.417969 34.265625 "/>
<path style=" stroke:none;fill-rule:nonzero;fill:rgb(91.764706%,78.039216%,61.568627%);fill-opacity:1;" d="M 91.398438 54.460938 C 91.398438 52.460938 91.15625 50.585938 90.707031 48.824219 C 85.308594 54.980469 73.382812 69.289062 48 69.289062 C 22.617188 69.289062 10.691406 54.980469 5.292969 48.824219 C 4.84375 50.585938 4.601562 52.460938 4.601562 54.460938 C 4.601562 72.125 22.835938 86.554688 45.765625 87.4375 C 46.507812 87.464844 47.25 87.480469 48 87.480469 C 48.75 87.480469 49.492188 87.464844 50.234375 87.4375 C 73.164062 86.554688 91.398438 72.125 91.398438 54.460938 Z M 91.398438 54.460938 "/>
<path style=" stroke:none;fill-rule:nonzero;fill:rgb(20%,21.176471%,22.745098%);fill-opacity:1;" d="M 48 88.609375 C 23.449219 88.609375 3.472656 73.289062 3.472656 54.460938 C 3.472656 40.390625 14.386719 30.957031 34.199219 27.894531 C 34.554688 27.839844 34.914062 27.957031 35.167969 28.210938 L 48 41.042969 L 60.832031 28.210938 C 61.085938 27.957031 61.449219 27.835938 61.800781 27.894531 C 81.613281 30.957031 92.527344 40.390625 92.527344 54.460938 C 92.527344 73.289062 72.550781 88.609375 48 88.609375 Z M 33.980469 30.214844 C 23.164062 31.976562 5.734375 37.460938 5.734375 54.460938 C 5.734375 72.046875 24.695312 86.351562 48 86.351562 C 71.304688 86.351562 90.265625 72.046875 90.265625 54.460938 C 90.265625 37.460938 72.835938 31.976562 62.019531 30.214844 L 48.796875 43.4375 C 48.375 43.863281 47.625 43.863281 47.203125 43.4375 Z M 33.980469 30.214844 "/>
<path style=" stroke:none;fill-rule:nonzero;fill:rgb(20%,21.176471%,22.745098%);fill-opacity:1;" d="M 48 88.609375 C 21.53125 88.609375 0 72.105469 0 51.816406 C 0 31.695312 21.410156 7.390625 48 7.390625 C 74.589844 7.390625 96 31.695312 96 51.816406 C 96 72.105469 74.46875 88.609375 48 88.609375 Z M 48 9.648438 C 22.660156 9.648438 2.257812 32.71875 2.257812 51.816406 C 2.257812 70.859375 22.777344 86.351562 48 86.351562 C 73.222656 86.351562 93.742188 70.859375 93.742188 51.816406 C 93.742188 32.71875 73.339844 9.648438 48 9.648438 Z M 48 9.648438 "/>
<path style=" stroke:none;fill-rule:nonzero;fill:rgb(98.823529%,90.196078%,78.431373%);fill-opacity:1;" d="M 57.34375 61.734375 C 57.34375 63.703125 53.160156 62.597656 48 62.597656 C 42.839844 62.597656 38.652344 63.703125 38.652344 61.734375 C 38.652344 59.769531 42.839844 58.171875 48 58.171875 C 53.160156 58.171875 57.34375 59.769531 57.34375 61.734375 Z M 57.34375 61.734375 "/>
<path style=" stroke:none;fill-rule:nonzero;fill:rgb(20%,21.176471%,22.745098%);fill-opacity:1;" d="M 40.351562 55.179688 C 39.886719 55.179688 39.453125 54.890625 39.285156 54.429688 C 38.507812 52.25 36.976562 50.839844 34.726562 50.238281 C 32.632812 49.675781 30.050781 49.878906 27.457031 50.804688 C 26.867188 51.015625 26.222656 50.707031 26.011719 50.121094 C 25.804688 49.535156 26.109375 48.886719 26.695312 48.679688 C 29.71875 47.597656 32.777344 47.378906 35.308594 48.054688 C 38.277344 48.847656 40.386719 50.792969 41.414062 53.671875 C 41.621094 54.257812 41.316406 54.90625 40.730469 55.113281 C 40.605469 55.15625 40.476562 55.179688 40.351562 55.179688 Z M 40.351562 55.179688 "/>
<path style=" stroke:none;fill-rule:nonzero;fill:rgb(20%,21.176471%,22.745098%);fill-opacity:1;" d="M 55.648438 55.179688 C 55.523438 55.179688 55.394531 55.160156 55.269531 55.113281 C 54.683594 54.902344 54.375 54.257812 54.585938 53.671875 C 55.613281 50.789062 57.722656 48.847656 60.691406 48.054688 C 63.222656 47.378906 66.28125 47.597656 69.304688 48.675781 C 69.890625 48.886719 70.195312 49.53125 69.988281 50.121094 C 69.777344 50.707031 69.132812 51.015625 68.542969 50.804688 C 65.949219 49.878906 63.367188 49.675781 61.273438 50.234375 C 59.023438 50.839844 57.488281 52.25 56.710938 54.429688 C 56.546875 54.890625 56.113281 55.179688 55.648438 55.179688 Z M 55.648438 55.179688 "/>
<path style=" stroke:none;fill-rule:nonzero;fill:rgb(20%,21.176471%,22.745098%);fill-opacity:1;" d="M 63.699219 61.074219 C 63.605469 61.03125 63.507812 60.992188 63.398438 60.976562 L 60.753906 60.523438 C 60.460938 60.46875 60.15625 60.539062 59.910156 60.714844 C 59.667969 60.886719 59.5 61.148438 59.449219 61.445312 L 59.011719 64.007812 C 56.582031 64.71875 52.882812 65.328125 48 65.328125 C 43.113281 65.328125 39.414062 64.71875 36.984375 64.007812 L 36.546875 61.445312 C 36.496094 61.148438 36.332031 60.886719 36.085938 60.714844 C 35.84375 60.539062 35.539062 60.46875 35.242188 60.523438 L 32.597656 60.976562 C 32.492188 60.992188 32.394531 61.03125 32.300781 61.074219 C 31.757812 61.15625 31.339844 61.621094 31.339844 62.1875 C 31.339844 65.898438 39.976562 67.585938 48 67.585938 C 56.019531 67.585938 64.65625 65.898438 64.65625 62.1875 C 64.65625 61.621094 64.242188 61.15625 63.699219 61.074219 Z M 34.535156 63.0625 C 34.472656 63.027344 34.425781 62.996094 34.367188 62.964844 L 34.511719 62.9375 Z M 61.488281 62.9375 L 61.628906 62.964844 C 61.574219 62.996094 61.527344 63.027344 61.464844 63.0625 Z M 61.488281 62.9375 "/>
</g>
</svg>
